<svg viewBox="0 0 1920 468" fill="none" xmlns="http://www.w3.org/2000/svg">
<path d="M197.6 74.9759L339.968 178.694L350.125 172.915L393.133 202.387L429.018 247.545L445.03 251.885L491.091 211.449L526.592 202.387L641.12 19.6607L660.992 38.5343L699.642 178.694H704.48L728.806 278.323L740.864 280.742L794.624 257.414L808.256 260.294L868.486 234.221L1138.21 215.194L1160.61 211.449L1253.25 170.016L1293.92 165.504L1295.84 175.469L1276.64 240.538L1286.93 239.482L1305.98 150.009L1318.69 145.402L1365.98 162.163L1432.16 211.449L1441.91 208.589L1622.24 336.019L1646.24 338.342L1665.44 322.368H1673.12L1716.32 250.176L1739.36 232.954L1750.88 261.024L1762.4 270.816L1779.05 303.821L1787.99 304.454L1794.89 187.603L1803.35 181.709L1844.33 102.586L1860.32 91.6415L1893.09 202.445L1899.68 202.387L1921.76 252.864L1942.88 293.702L1964 317.395V405.715L44 475.392V146.093L60.0512 161.395L80.48 232.954L87.2 238.694L118.4 330.125H122.24L120.8 286.042L132.8 72.0959L153.44 3.32149L159.2 1.80469L183.2 46.0415L193.76 70.9823L197.6 74.9759Z" fill="url(#paint0_linear_342_7)"/>
<path style="mix-blend-mode:multiply" opacity="0.5" d="M124.698 380.563L44 475.392V306.605L55.04 367.987H65.6L87.2 351.091L57.44 243.149L48.32 238.695L44 278.4V152.602L60.0512 161.395L80.48 232.954L62.24 235.162L92.96 342.125L122.24 330.125L120.8 286.042L132.8 72.0962L153.44 3.32178L157.28 24.845L161.12 174.259L173.6 216.634L312.627 293.875L275.36 256.704L197.6 212.525V122.323L214.726 194.707L327.565 211.45L323.59 194.899L339.968 178.695L350.125 172.915L336.57 192.403L379.328 224.256L413.274 240.538L393.133 202.387L429.018 247.546L445.03 251.885L497.12 312.807L553.011 278.323L537.44 216.999L491.091 211.45L526.592 202.387L553.011 211.45L609.44 93.4082L605.811 84.9602L639.834 40.0514L616.16 84.9602L561.958 208.589L580.314 239.482L620.077 269.664L641.12 244.896L649.434 188.352L652.006 40.0514L641.12 19.661L660.992 38.5346L699.642 178.695V312.807L712.794 308.679L720.474 285.658L704.48 178.695L728.806 278.323L740.864 280.743L794.624 257.415L763.52 280.743L792.09 274.042L809.504 264.653L808.256 260.295L868.486 234.221L794.624 275.002L808.256 278.323L881.082 252.864L916.237 230.842L1160.61 211.45L1203.07 192.461L1188.32 206.746L1214.24 206.765L1233.44 191.616L1253.25 176.775L1262.57 175.815L1234.4 192.48L1214.24 221.895L1268.63 214.215L1284.47 185.722L1293.92 165.504L1295.32 172.762L1276.64 240.538L1286.93 239.482L1296.47 214.215L1301.93 241.402L1321.43 237.255L1331.99 209.722L1322.28 183.552L1329.29 180.845L1318.69 145.402L1367.76 163.488L1497.42 308.679L1436.63 225.408L1432.16 211.45L1437.59 209.856V218.055L1532.58 332.295L1631.36 360.211H1636.64L1632.32 340.282L1622.24 336.019L1646.24 338.343L1653.44 360.211L1660.16 356.122L1671.2 330.682L1673.12 322.368L1675.29 330.682L1697.75 358.157L1702.88 327.802L1703.36 299.674L1704.8 342.528L1718.57 333.562L1727.36 325.882L1740.32 239.367L1744.79 266.189V330.125L1747.04 354.682L1752.17 266.189L1762.4 270.816L1772 335.175L1768.16 351.802L1752.47 406.215L1759.56 413.127L1781.95 412.32L1793.45 301.248L1794.89 187.603L1803.35 181.709L1806.23 201.735V278.842L1862.87 204.557L1865.37 188.602L1853.24 96.4994L1844.33 102.586L1822.15 145.402L1844.33 102.586L1860.32 91.6418L1892.44 200.179L1829.6 378.375L1826.09 403.335L1836.95 404.602L1892.44 200.179L1893.09 202.445L1861.61 347.52L1866.08 391.335L1903.19 388.359L1899.68 202.387L1942.88 293.703L1964 317.395V405.715L124.698 380.563Z" fill="url(#paint1_linear_342_7)"/>
<g style="mix-blend-mode:soft-light">
<path d="M652.006 40.051L649.433 188.352L637.28 119.693V94.1374L633.44 75.0142L627.353 70.9822L616.16 101.453L594.195 137.971L599.245 183.321L623.072 204.557L647.993 198.201L623.072 208.589L616.486 202.387L594.137 188.352V146.861L590.432 143.654L639.833 40.051L605.811 84.9598L609.44 93.4079L580.025 154.944L586.4 116.678L582.905 112.55L641.12 19.6606L652.006 40.051Z" fill="#DBD1FF"/>
</g>
<g style="mix-blend-mode:soft-light">
<path d="M704.48 178.694L711.757 227.27L699.642 244.896L713.389 238.214L699.642 262.867V178.694H704.48Z" fill="#DBD1FF"/>
</g>
<g style="mix-blend-mode:soft-light">
<path d="M197.6 74.9761L310.88 157.517L268.006 139.968L271.193 131.962L259.673 122.054L219.353 103.238L248.806 139.085L254.24 150.01L216.8 140.333L205.913 128.064V114.95L203.686 114.125L210.944 178.694L197.6 122.323V74.9761Z" fill="#A490C9"/>
</g>
<g style="mix-blend-mode:soft-light">
<path d="M1318.69 145.401L1329.29 180.845L1322.28 183.552L1331.99 209.721L1321.43 237.254L1301.93 241.401L1296.47 214.214L1305.98 150.009L1318.69 145.401Z" fill="#DBD1FF"/>
</g>
<g style="mix-blend-mode:soft-light">
<path d="M1293.92 165.504L1268.63 214.214L1276.16 185.933L1270.8 183.552L1220.5 212.774L1233.44 191.616L1262.57 175.814L1253.25 176.774L1229.52 194.707H1198.38L1203.07 192.461L1253.25 170.016L1293.92 165.504Z" fill="#DBD1FF"/>
</g>
<g style="mix-blend-mode:soft-light">
<path d="M1333.66 221.587L1324.85 270.586L1329.29 266.189L1347.68 323.52L1395.2 358.157L1364.48 323.52L1395.2 334.771L1333.66 221.587Z" fill="#DBD1FF"/>
</g>
<g style="mix-blend-mode:soft-light">
<path d="M1441.91 208.589L1456.52 225.158L1478.72 260.294L1460.33 240.096L1478.72 266.189L1437.59 218.054V209.856L1441.91 208.589Z" fill="#DBD1FF"/>
</g>
<g style="mix-blend-mode:soft-light">
<path d="M1716.32 250.176L1673.12 322.368L1704.47 278.938L1709.27 266.189H1713.44L1692.32 304.454L1687.52 339.648L1703.48 303.187L1704.8 342.528L1727.36 325.882L1733.6 244.896L1716.32 250.176Z" fill="#DBD1FF"/>
</g>
<g style="mix-blend-mode:soft-light">
<path d="M916.237 230.842L877.011 254.285L808.256 278.323L794.624 275.002L848 245.53L831.2 258.855L868.486 238.579L858.925 239.482L868.486 234.221L916.237 230.842Z" fill="#DBD1FF"/>
</g>
<g style="mix-blend-mode:soft-light">
<path d="M1853.23 96.48L1865.37 188.64L1862.87 204.576L1837.91 237.408C1837.91 237.408 1829.66 232.128 1829.18 233.28C1828.7 234.432 1844.54 135.36 1844.54 135.36L1833.9 155.002L1819.52 178.042L1824.32 155.002L1803.35 181.69L1844.33 102.586L1853.23 96.48Z" fill="#DBD1FF"/>
</g>
<g style="mix-blend-mode:soft-light">
<path d="M1899.68 202.387L1902.02 325.862L1897.91 265.882L1893.29 278.534L1872.22 298.579L1893.09 202.445L1899.68 202.387Z" fill="#DBD1FF"/>
</g>
<path d="M429.018 247.546L393.133 202.387L350.125 172.915L339.968 178.694L197.6 74.976L193.76 70.9824L183.2 46.0416L159.2 1.8048L153.44 3.3216L161.197 0L193.76 70.9824L199.194 72.096L338.01 176.006L341.005 176.486L350.125 171.206L395.13 202.656L429.018 247.546Z" fill="#9CA9FF"/>
<path d="M445.03 251.885L491.091 211.45L526.592 202.387L641.12 19.6609L660.992 38.5345L699.642 178.694H704.48L728.806 278.323L740.864 280.742L731.034 274.714L706.515 176.448L700.122 172.915L663.488 35.9617L642.752 15.5713L524.326 200.122L491.187 208.589L445.03 251.885Z" fill="#9CA9FF"/>
<path d="M751.481 276.134L794.624 257.414L808.256 260.294L868.486 234.221L1138.21 215.194L1160.61 211.45L1253.25 170.016L1293.92 165.504L1251.45 168.442L1160.61 208.589L1138.28 214.214L866.681 232.339L809.504 257.971L794.624 255.36L751.481 276.134Z" fill="#9CA9FF"/>
<path d="M1860.32 91.6416L1844.33 102.586L1803.35 181.709L1794.89 187.603L1787.99 304.454L1792.08 186.202L1803.35 178.694L1844.73 99.8016L1860.32 91.6416Z" fill="#9CA9FF"/>
<path d="M1739.36 232.954L1716.32 250.176L1673.12 322.368H1665.44L1673.12 319.642L1716.32 247.488L1739.36 232.954Z" fill="#9CA9FF"/>
<path d="M1248.36 228.037L1376.64 283.429L1647.99 320.965L1920 319.563V468.401H0V319.563L576.077 277.765L863.77 229.841L1248.36 228.037Z" fill="url(#paint2_linear_342_7)"/>
<path style="mix-blend-mode:multiply" opacity="0.71" d="M1248.36 228.037L1337.05 302.897V328.433L1248.36 403.467L1117.06 422.571L1185.81 468.401H1689.6L1551.36 435.051L1521.6 411.339L1920 422.571V413.931L1611.76 414.392L1468.09 340.165L1488.58 340.337L1471.05 335.134L1399.03 286.52L1376.64 283.429L1248.36 228.037Z" fill="url(#paint3_linear_342_7)"/>
<path style="mix-blend-mode:multiply" opacity="0.5" d="M584.717 276.325L750.624 253.342L734.496 262.52L624.845 313.496L502.214 342.066L652.512 315.915L674.995 316.414L549.12 386.034L233.28 417.963L173.76 400.856L470.054 349.592L229.44 384.978L0 378.699V468.402H608.006L789.792 242.168L584.717 276.325Z" fill="url(#paint4_linear_342_7)"/>
<path style="mix-blend-mode:multiply" opacity="0.5" d="M1611.76 414.392L1551.65 413.144L1920 422.571V413.931L1611.76 414.392Z" fill="url(#paint5_linear_342_7)"/>
<path style="mix-blend-mode:multiply" opacity="0.5" d="M674.996 316.414L685.325 327.358L712.474 310.712L780.154 247.678L750.624 253.342L624.845 313.496L502.215 342.065L652.512 315.915L674.996 316.414Z" fill="url(#paint6_linear_342_7)"/>
<path style="mix-blend-mode:multiply" opacity="0.5" d="M1551.36 435.051L1620.63 468.402H1689.6L1551.36 435.051Z" fill="url(#paint7_linear_342_7)"/>
<g style="mix-blend-mode:soft-light">
<path d="M750.624 253.342L624.845 313.496L499.2 342.065L332.852 369.598L614.612 310.712L636.48 298.405L549.12 306.987L459.053 315.339L509.012 283.429L576.077 277.765L750.624 253.342Z" fill="#A963A1"/>
</g>
<g style="mix-blend-mode:soft-light">
<path d="M674.995 316.414L549.12 386.033L273.619 413.873L369.696 388.414L482.592 375.665L498.643 368.542L354.451 386.033L277.901 384.977L572.006 349.592L597.12 336.517L474.317 353.777L460.397 351.262L652.512 315.915L674.995 316.414Z" fill="#A963A1"/>
</g>
<g style="mix-blend-mode:soft-light">
<path d="M349.133 353.432L223.68 367.045L0 370.827V357.867L447.091 319.563L431.52 326.034L319.68 350.322L349.133 353.432Z" fill="#A963A1"/>
</g>
<path style="mix-blend-mode:multiply" opacity="0.5" d="M1468.09 340.165L1466.15 403.103L1434.72 379.602V330.334L1471.05 335.134L1488.58 340.338L1468.09 340.165Z" fill="url(#paint8_linear_342_7)"/>
<g style="mix-blend-mode:soft-light">
<path d="M1647.99 320.965L1689.6 336.517L1488.58 303.877H1471.2L1654.08 335.134L1659.36 340.165L1572 338.034L1575.84 340.165L1561.44 348.21H1483.68L1468.09 340.165L1488.58 340.338L1471.05 335.134L1399.03 286.52L1647.99 320.965Z" fill="#A963A1"/>
</g>
<path style="mix-blend-mode:multiply" opacity="0.71" d="M1871.04 387.032L1858.02 362.686L1836.86 347.729L1750.89 368.542L1590.72 387.819L1871.04 387.032Z" fill="url(#paint9_linear_342_7)"/>
<path style="mix-blend-mode:multiply" opacity="0.71" d="M1759.35 347.711V340.165L1730.88 343.947L1640.64 357.599L1759.35 347.711Z" fill="url(#paint10_linear_342_7)"/>
<g style="mix-blend-mode:soft-light">
<path d="M1836.86 347.73L1759.35 347.71L1654.08 366.718L1574.88 383.768L1590.72 387.819L1750.89 368.542L1836.86 347.73Z" fill="#BDA5D6"/>
</g>
<g style="mix-blend-mode:soft-light">
<path d="M1759.35 340.165L1730.88 338.034L1612.32 355.525L1640.64 357.598L1759.35 340.165Z" fill="#A963A1"/>
</g>
<path d="M1226.8 209.816L1337.05 302.898V328.434L1397.45 311.384L1413.64 330.008H1422.26L1506.74 436.952L624.845 440.83L661.766 353.778L703.488 306.987L722.246 297.157L774.355 252.651L824.486 209.816H1226.8Z" fill="url(#paint11_linear_342_7)"/>
<path d="M1148.72 209.816L1165.92 190.885L1148.72 168.958H1153.8L1099.49 122.552L1117.06 93.9438L960.96 130.731L907.296 145.957L868.8 217.323L987.552 215.23L1148.72 209.816Z" fill="#00000B"/>
<path d="M896.832 149.259L888.038 186.546L870.317 205.189L851.481 203.653L860.102 189.176L865.881 179.096L896.832 149.259Z" fill="#00000B"/>
<path d="M1148.72 209.816L1165.92 190.885L1148.72 168.958H1153.81L1099.49 122.552L1149.89 160.241L1226.8 209.816H1148.72Z" fill="url(#paint12_linear_342_7)"/>
<path d="M1165.92 190.885L1188.65 195.704L1211.62 201.387L1173.54 189.176L1148.72 168.958L1165.92 190.885Z" fill="#00000B"/>
<path d="M1153.81 168.958H1161.64L1159.1 166.193L1147.14 163.256L1153.81 168.958Z" fill="#00000B"/>
<path d="M1226.8 209.816L1337.05 302.897V328.433L1316.87 352.894L1337.05 328.433L1341.79 349.592L1326.28 380.254L1357.11 378.277L1381.65 366.622L1399.03 359.077L1385.2 382.865L1461.25 406.309L1456.45 387.262L1488.58 439.832L1310.52 437.816L1165.92 357.905L1017.49 349.592L837.082 294.545L923.943 280.798L944.448 277.765L1005.24 268.261H1078.18L1005.24 251.806L897.197 237.618L863.77 229.841L1008 221.931L1129.11 217.957L1116.52 209.816H1226.8Z" fill="url(#paint13_linear_342_7)"/>
<path d="M960.96 440.831L1104.98 379.602L960.96 432.267L940.186 426.738L883.277 418.405L981.12 364.779L900.288 393.733L833.338 400.856H683.463L655.642 368.197L661.767 353.778L703.488 306.987L576.077 440.831H960.96Z" fill="url(#paint14_linear_342_7)"/>
<path d="M1018.43 209.394L987.552 215.23L926.534 221.931L863.769 229.842L897.197 237.618L1005.24 251.806L1078.18 268.261H1005.24L863.769 290.091L837.081 294.546L1017.48 349.592L1165.92 357.906L1121.66 438.642L960.96 440.83L1104.98 379.602L1096.17 373.458L981.12 364.779L765.504 290.667L821.971 283.736L968.045 268.741L1016.43 262.52H1037.93L928.224 247.198L874.157 238.366L839.923 225.656L931.641 216.555L996.979 209.144L1018.43 209.394Z" fill="url(#paint15_linear_342_7)"/>
<path d="M1226.8 391.563L1259.5 414.354L1253.28 418.635L1238.5 420.939L1241.74 425.682L1191.36 431.499L1121.66 438.642L1310.52 437.816L1226.8 391.563Z" fill="url(#paint16_linear_342_7)"/>
<path d="M824.486 209.816L994.829 209.394L956.62 213.733L839.923 225.656L785.26 254.725L791.481 266.149H821.971L878.246 239.038L806.88 279.973L817.997 284.37L765.504 290.667L722.246 297.157L824.486 209.816Z" fill="url(#paint17_linear_342_7)"/>
<path style="mix-blend-mode:multiply" opacity="0.8" d="M924 280.952L1005.25 268.242H1078.21L1005.25 251.807L897.197 237.618L863.77 229.842L947.251 238.136L1129.13 217.938L1116.52 209.816H1148.72L1270.68 256.434L1229.41 217.304L1165.92 190.866L1209.25 200.101L1226.78 209.816L1337.05 302.898V328.434L1311.82 353.202L1266.39 400.184L1285.06 411.416L1331.81 415.256L1385.2 383.039L1399.03 359.25L1397.43 311.557L1413.66 330.181L1427.6 364.722L1453.69 384.978L1422.26 330.047L1506.74 436.971H1486.81L1488.58 439.851L1310.52 437.931L1165.92 358.021L1017.48 349.707L938.573 325.631L837.12 294.546L924 280.952ZM1183.2 297.157L1279.2 320.946L1328.39 310.712L1266.57 260.024L1157.63 255.474L1183.2 297.157ZM957.389 284.216L994.08 271.275L924.557 282.507L914.093 284.216L851.558 294.795L926.131 287.346L957.389 284.216Z" fill="url(#paint18_linear_342_7)"/>
<path style="mix-blend-mode:multiply" opacity="0.8" d="M947.251 238.136L1061.49 225.445L1064.45 238.635L1069.36 229.842L1078.21 223.602L1129.13 217.938L1183.14 297.157L1328.31 333.138L1337.05 302.898V328.434L1266.39 400.107L1248.36 403.467L1165.92 357.906L1123.2 355.525L1117 340.933L1078.1 268.242L1005.14 251.806L945.178 243.934L947.251 238.136ZM1163.14 325.515L1216.09 353.778L1296.73 340.146L1254.3 319.909L1226.88 310.712L1129.23 297.157L1163.14 325.515ZM1147.12 293.432H1174.25L1165.92 284.6L1148.64 275L1123.2 277.074L1147.12 293.432ZM998.688 241.842L1070.11 255.493L1043.9 229.842L974.439 237.253L998.688 241.842Z" fill="url(#paint19_linear_342_7)"/>
<path style="mix-blend-mode:multiply" opacity="0.5" d="M1285.06 411.339L1331.81 415.103L1385.2 382.866L1461.25 406.309L1488.58 439.832L1310.52 437.816L1248.37 403.467L1285.06 411.339Z" fill="url(#paint20_linear_342_7)"/>
<path style="mix-blend-mode:multiply" opacity="0.2" d="M999.686 269.125L1017.48 349.592L1011.36 347.73L996.96 269.547L999.686 269.125Z" fill="url(#paint21_linear_342_7)"/>
<path style="mix-blend-mode:multiply" opacity="0.2" d="M837.082 294.546L938.573 325.515L926.074 287.346L851.501 294.814L914.036 284.216L924.5 282.526L924 280.952L923.943 280.798L837.082 294.546Z" fill="url(#paint22_linear_342_7)"/>
<path d="M883.277 336.517L817.844 310.712L801.754 309.368L820.704 325.515L839.924 336.517H883.277Z" fill="url(#paint23_linear_342_7)"/>
<path d="M797.875 306.987H809.03L799.546 303.166L782.035 301.227L791.635 305.24L796.704 306.987H797.875Z" fill="url(#paint24_linear_342_7)"/>
<path style="mix-blend-mode:multiply" opacity="0.5" d="M1096.17 373.457L1033.56 405.713L912.096 411.339L905.3 406.328L981.12 364.721L961.92 358.117L959.578 368.753L901.978 388.395L878.266 368.158L883.277 336.478L894.106 334.827L817.92 310.712L880.704 335.48L839.981 336.517L825.082 382.846L809.031 391.601L750.72 400.856H833.28L868.762 397.016L887.77 403.409C887.77 403.409 866.266 421.611 863.712 421.093C861.159 420.574 802.272 406.481 802.272 406.481L652.397 415.026L683.52 400.856L772.436 391.601L801.754 309.406L814.925 307.717L809.031 307.026H797.876L779.309 363.186L765.504 377.989L758.708 378.373L782.036 301.285L758.708 368.254L709.997 385.765L628.224 395.729L676.685 335.192L576.077 440.792H960.96L1104.96 379.582L1096.17 373.457Z" fill="url(#paint25_linear_342_7)"/>
<path style="mix-blend-mode:multiply" opacity="0.5" d="M772.435 391.563L765.504 377.931L758.707 378.315L761.51 369.042L758.707 368.197L709.997 385.707L683.577 388.933L662.112 391.563L652.512 415.102L683.462 400.856L772.435 391.563Z" fill="url(#paint26_linear_342_7)"/>
<path style="mix-blend-mode:multiply" opacity="0.5" d="M960.96 440.83L1104.98 379.602L1096.17 373.458L1033.56 405.733L912.115 411.339L902.343 423.877L880.935 440.83H960.96Z" fill="url(#paint27_linear_342_7)"/>
<path style="mix-blend-mode:multiply" opacity="0.5" d="M960.269 357.599L959.539 368.792L901.958 388.434L900.288 393.733L981.12 364.779L960.269 357.599Z" fill="url(#paint28_linear_342_7)"/>
<path style="mix-blend-mode:multiply" opacity="0.5" d="M825.024 382.866L846.278 393.733H865.882L896.832 394.098L833.338 400.856H750.624L809.03 391.563L825.024 382.866Z" fill="url(#paint29_linear_342_7)"/>
<path style="mix-blend-mode:multiply" opacity="0.5" d="M1216.09 353.778L1226.8 391.563L1248.37 403.467L1266.39 400.126L1328.1 337.496L1328.31 333.157L1231.76 309.214L1228.76 310.712L1254.34 319.909L1296.77 340.165L1216.09 353.778Z" fill="url(#paint30_linear_342_7)"/>
<path style="mix-blend-mode:multiply" opacity="0.5" d="M1174.25 293.432L1177.57 303.877L1147.3 299.672L1147.12 293.432H1174.25Z" fill="url(#paint31_linear_342_7)"/>
<path style="mix-blend-mode:multiply" opacity="0.5" d="M987.552 255.474L974.438 264.229L817.996 284.37L806.88 279.973L821.971 266.149L803.443 275.019L761.779 288.382L730.982 289.688L722.246 297.157L765.504 290.667L1012.3 263.038L1037.93 262.52L987.552 255.474Z" fill="url(#paint32_linear_342_7)"/>
<g style="mix-blend-mode:soft-light" opacity="0.5">
<path d="M1165.92 357.925L1123.26 371.019L1104.98 379.601L1096.17 373.457L981.12 364.779L765.504 290.667L837.081 294.545L1017.48 349.592L1165.92 357.925Z" fill="#D6DBFF"/>
</g>
<g style="mix-blend-mode:soft-light" opacity="0.5">
<path d="M1144.53 396.92L1061.34 398.149L1050.01 402.968L1134.51 415.217L1144.53 396.92Z" fill="#D6A7C2"/>
</g>
<g style="mix-blend-mode:soft-light" opacity="0.5">
<path d="M1129.13 425.029L1020.88 415.352L1015.93 417.464L1127.75 427.544L1129.13 425.029Z" fill="#D6A7C2"/>
</g>
<g style="mix-blend-mode:soft-light" opacity="0.5">
<path d="M951.302 276.325L938.572 271.294L839.923 282.334L863.769 290.091L951.302 276.325Z" fill="#D6DBFF"/>
</g>
<g style="mix-blend-mode:soft-light" opacity="0.5">
<path d="M1033.94 268.261L1022.15 262.52H1037.93L977.626 254.091L1005.25 251.807L1078.16 268.261H1033.94Z" fill="#D6DBFF"/>
</g>
<g style="mix-blend-mode:soft-light" opacity="0.5">
<path d="M963.84 246.373L936.73 248.389L874.157 238.367L895.604 237.253L963.84 246.373Z" fill="#EDEFF3"/>
</g>
<g style="mix-blend-mode:soft-light" opacity="0.5">
<path d="M863.769 229.842L839.923 225.656L902.611 219.455L931.641 221.355L863.769 229.842Z" fill="#EDEFF3"/>
</g>
<path d="M703.488 306.987L712.474 310.712L750.624 298.654L765.504 290.667L722.247 297.157L703.488 306.987Z" fill="url(#paint33_linear_342_7)"/>
<g style="mix-blend-mode:soft-light" opacity="0.5">
<path d="M1063.76 390.162L971.731 369.925L961.267 375.666L1021.36 387.147L1017.48 388.702L953.28 380.043L949.709 381.694L1050.01 396.92L1063.76 390.162Z" fill="#D6A7C2"/>
</g>
<g style="mix-blend-mode:soft-light" opacity="0.5">
<path d="M1021.88 406.059L942.183 386.13L938.573 388.107L1015.93 406.539L1021.88 406.059Z" fill="#D6A7C2"/>
</g>
<g style="mix-blend-mode:soft-light" opacity="0.5">
<path d="M1397.91 325.515L1368.46 319.563L1337.05 328.434L1397.91 335.135V325.515Z" fill="#D6A7C2"/>
</g>
<g style="mix-blend-mode:soft-light" opacity="0.5">
<path d="M1398.78 351.665L1338.55 335.134L1339.18 337.976L1399.03 359.077L1398.78 351.665Z" fill="#D6A7C2"/>
</g>
<path style="mix-blend-mode:multiply" opacity="0.5" d="M1399.03 359.077L1427.6 364.683L1413.64 330.008L1397.45 311.384L1399.03 359.077Z" fill="url(#paint34_linear_342_7)"/>
<path style="mix-blend-mode:multiply" opacity="0.2" d="M931.642 248.389L878.246 276.613L872.602 277.342L930.182 247.678L931.642 248.389Z" fill="url(#paint35_linear_342_7)"/>
<path style="mix-blend-mode:multiply" opacity="0.2" d="M909.542 244.031L862.406 278.648L857.549 279.282L905.299 243.455L909.542 244.031Z" fill="url(#paint36_linear_342_7)"/>
<path style="mix-blend-mode:multiply" opacity="0.2" d="M993.408 342.258L922.771 344.715L907.296 339.397H984.058L993.408 342.258Z" fill="url(#paint37_linear_342_7)"/>
<path style="mix-blend-mode:multiply" opacity="0.2" d="M880.934 330.334H928.224V325.515L837.081 300.689H794.649L880.934 330.334Z" fill="url(#paint38_linear_342_7)"/>
<path d="M1117.06 93.9438L1130.52 145.765L1099.49 122.552L1117.06 93.9438Z" fill="#00000B"/>
<path d="M1117.06 93.9438L1093.32 127.006L1037.93 170.84L1097.15 128.081L1085.22 163.256L1017.37 209.585L973.19 209.105L911.366 209.393L936.019 137.201L960.96 130.731L1117.06 93.9438Z" fill="url(#paint39_linear_342_7)"/>
<path d="M994.042 271.294L957.332 284.216L992.948 276.325L970.484 306.987L938.573 325.515L837.082 294.546L994.042 271.294Z" fill="url(#paint40_linear_342_7)"/>
<path style="mix-blend-mode:multiply" opacity="0.5" d="M992.947 276.325L1011.36 347.73L993.408 342.258L970.483 306.987L992.947 276.325Z" fill="url(#paint41_linear_342_7)"/>
<path d="M900.288 393.733L887.827 403.467H892.608L863.27 427.544L809.03 411.339L628.224 435.051L652.512 415.103L683.462 400.856H837.081L900.288 393.733Z" fill="url(#paint42_linear_342_7)"/>
<path style="mix-blend-mode:multiply" opacity="0.5" d="M809.03 411.339L820.57 440.831H722.246L718.81 423.186L809.03 411.339Z" fill="url(#paint43_linear_342_7)"/>
<path d="M1165.92 368.197L1147.12 400.856L1121.66 438.642L1148.76 438.027L1172.95 388.05L1165.92 368.197Z" fill="url(#paint44_linear_342_7)"/>
<path style="mix-blend-mode:multiply" opacity="0.5" d="M1172.95 388.05L1261.98 438.027L1165.92 368.197L1172.95 388.05Z" fill="url(#paint45_linear_342_7)"/>
<path style="mix-blend-mode:multiply" opacity="0.5" d="M655.642 368.197L701.299 319.121L707.059 315.512L750.336 313.477L769.536 315.397L754.176 353.797L727.699 373.611L688.55 378.833L693.178 368.35L693.696 349.745L705.216 342.2L720.922 332.139L744.71 330.488L727.258 336.67H720.538L703.507 344.792L698.246 349.841L694.925 363.857L696.48 374.955L705.542 375.051L726.95 371.845L753.427 352.376L759.936 324.977L747.302 317.528L708.365 318.008C708.077 318.008 701.741 322.097 701.741 322.097L677.99 348.19L666.701 356.485L655.642 368.197Z" fill="url(#paint46_linear_342_7)"/>
<path style="mix-blend-mode:multiply" opacity="0.5" d="M1468.09 438.642L1446.8 415.352L1416.69 406.059L1363.22 415.102L1353.87 423.205L1374.45 434.917H1418.65L1432.86 428.734L1427.6 420.555L1419.23 413.547L1399.03 415.102L1382.63 419.979L1385.15 423.205L1392.56 419.595L1415.14 416.35L1419.28 416.6L1426.04 421.15L1428.77 427.505L1415.65 433.342L1375.55 432.824L1370.23 430.366L1358.55 422.36L1360.24 419.73L1377.62 414.142L1416.17 407.384L1444.59 416.35L1452.77 425.566L1456.8 439.064L1468.09 438.642Z" fill="url(#paint47_linear_342_7)"/>
<g style="mix-blend-mode:soft-light">
<path d="M1123.26 355.525L1093.32 297.445L1108.11 339.397L1097.15 342.065L1086.12 336.478L1082.69 347.73L1050.01 316.184L1007.23 296.523L1018.43 330.334L1014.2 338.034L992.947 276.325L1011.36 347.73L1017.48 349.592L1123.26 355.525Z" fill="#A963A1"/>
</g>
<g style="mix-blend-mode:soft-light" opacity="0.5">
<path d="M1226.8 391.563L1216.09 353.778L1204.74 347.73V373.899H1200.98L1197.1 373.458L1192.42 341.144L1189.13 339.397L1192.42 368.197H1189.13L1181.78 365.471L1165.92 355.525L1141.17 307.199L1137.18 303.877L1157.55 344.715V357.599L1165.92 357.925L1226.8 391.563Z" fill="#A963A1"/>
</g>
<g style="mix-blend-mode:soft-light" opacity="0.8">
<path d="M1157.55 357.598L1129.13 297.157H1133.61L1123.26 277.093L1130.52 275.633L1112.89 219.742L1109.65 220.107L1123.26 264.881L1119.23 268.261L1109.65 283.045L1114.54 315.915H1108.11L1081.71 223.217L1078.21 223.601L1097.26 284.216L1097.15 290.091L1090.87 288.209L1078.16 268.261L1123.26 355.525L1157.55 357.598Z" fill="#A963A1"/>
</g>
<g style="mix-blend-mode:soft-light" opacity="0.8">
<path d="M1307.56 358.347L1296.77 340.165L1293.87 340.645L1300.72 360.671V362.475L1283.73 342.373L1276.57 343.563L1284.58 362.475L1282.5 364.683L1283.4 382.866L1274.84 391.563L1242.93 349.247L1240.47 349.669L1269.5 396.92L1307.56 358.347Z" fill="#A963A1"/>
</g>
<g style="mix-blend-mode:soft-light">
<path d="M996.979 209.144L1097.15 128.081L1005.24 195.358L981.12 196.107L1103.04 113.489L1112.85 99.7998L1002.03 177.214L981.12 178.481L1011.36 133.899L1051.83 109.323L981.12 127.352L945.312 171.877L931.085 207.512L996.979 209.144Z" fill="#A963A1"/>
</g>
<path d="M896.832 149.259L824.486 209.816L907.296 209.682L872.601 208.395L867.398 201.099L861.965 192.728L865.882 189.176V179.096L896.832 149.259Z" fill="url(#paint48_linear_342_7)"/>
<path d="M861.964 192.728L839.923 203.653L860.102 190.885L865.881 189.176L861.964 192.728Z" fill="url(#paint49_linear_342_7)"/>
<g style="mix-blend-mode:soft-light">
<path d="M801.754 400.856L718.81 423.186L690.413 426.91L786.451 400.856H801.754Z" fill="#A963A1"/>
</g>
<g style="mix-blend-mode:soft-light">
<path d="M765.504 400.856L628.224 435.051L649.017 417.963L746.073 400.856H765.504Z" fill="#A963A1"/>
</g>
<path d="M1150.56 209.816L1114.73 160.894L1109.95 164.35V175.217L1106.55 167.153L1098.07 145.765L1094.4 151.525L1091 195.569L1087.07 189.195L1063.62 190.731L1020.25 209.393L1150.56 209.816Z" fill="url(#paint50_linear_342_7)"/>
<path style="mix-blend-mode:multiply" opacity="0.5" d="M1061.76 200.101L1086.99 189.176L1090.93 195.55L1099.6 203.653L1106.73 203.826L1109.86 185.835L1098.91 150.45L1096.26 148.53L1097.99 145.803L1109.86 175.256L1130.8 202.136L1124.53 177.56L1114.66 160.894L1150.48 209.816L1027.83 209.394L1061.76 200.101ZM1086.72 193.995L1062.51 201.522L1043.31 208.165L1082.88 205.17L1089.16 195.742L1086.72 193.995ZM1093.88 208.664L1095.07 206.744L1094.21 205.131L1085.32 205.957L1071.88 208.165L1093.88 208.664Z" fill="url(#paint51_linear_342_7)"/>
<g style="mix-blend-mode:soft-light">
<path d="M1087.07 189.176L1061.84 200.101L1027.91 209.393H1020.25L1063.62 190.731L1087.07 189.176Z" fill="#C095AC"/>
</g>
<path style="mix-blend-mode:multiply" opacity="0.5" d="M1061.84 200.101L1062.51 201.56L1043.33 208.203L1082.96 205.189L1085.41 205.995L1071.94 208.203L1093.96 208.664L1095.17 206.802L1099.68 203.653L1115.27 206.917L1106.82 203.826L1109.95 185.854L1125.06 199.294L1130.88 202.155L1150.56 209.816L1027.91 209.394L1061.84 200.101Z" fill="url(#paint52_linear_342_7)"/>
<g style="mix-blend-mode:multiply" opacity="0.3">
<path d="M1083.15 190.885L1084.53 194.706L1081.36 195.704L1079.58 192.421L1083.15 190.885Z" fill="#D3B5C5"/>
</g>
<g style="mix-blend-mode:multiply" opacity="0.3">
<path d="M1078.68 196.53L1075.07 194.379L1070.36 196.415L1074.43 197.855L1078.68 196.53Z" fill="#D3B5C5"/>
</g>
<g style="mix-blend-mode:multiply" opacity="0.3">
<path d="M1123.99 193.285L1106.15 173.605L1098.97 150.45L1100.45 151.679L1109.95 175.218L1123.99 193.285Z" fill="#C39AB0"/>
</g>
<g style="mix-blend-mode:multiply" opacity="0.3">
<path d="M1124.6 177.56L1135.45 189.176L1114.73 160.895L1124.6 177.56Z" fill="#C39AB0"/>
</g>
<g style="mix-blend-mode:multiply" opacity="0.5">
<path d="M1106.82 203.826L1115.27 206.917L1116.67 209.816H1130.96L1106.82 203.826Z" fill="#B888A2"/>
</g>
<g style="mix-blend-mode:multiply" opacity="0.5">
<path d="M1093.34 165.445L1107.92 179.326L1109.95 185.854L1108.74 192.728L1092.69 175.045L1093.34 165.445Z" fill="#D3B5C5"/>
</g>
<g style="mix-blend-mode:multiply" opacity="0.5">
<path d="M1104.71 168.958L1094.21 154.194L1094.4 151.525L1102.77 162.718L1104.71 168.958Z" fill="#D3B5C5"/>
</g>
<path d="M362.631 470.168L368.103 321.618L384.596 299.768L464.487 326.034L576.212 424.261L578.592 470.168H362.631Z" fill="url(#paint53_linear_342_7)"/>
<path style="mix-blend-mode:multiply" opacity="0.8" d="M384.596 299.768L409.056 375.243L426.452 398.015L469.268 411.992L448.378 387.819L502.215 421.362L576.212 424.261L578.592 470.168H362.631V326.322L384.596 299.768Z" fill="url(#paint54_linear_342_7)"/>
<path style="mix-blend-mode:multiply" opacity="0.8" d="M444.192 383.576L409.056 341.432L402.777 323.307L444.192 383.576Z" fill="url(#paint55_linear_342_7)"/>
<path style="mix-blend-mode:multiply" opacity="0.8" d="M510.72 470.168L502.215 421.362L448.378 387.819L469.268 411.992L462.375 470.168H510.72Z" fill="url(#paint56_linear_342_7)"/>
<path style="mix-blend-mode:multiply" opacity="0.8" d="M426.452 398.015L431.655 470.168H362.631V326.322L384.596 299.768L409.056 375.243L426.452 398.015Z" fill="url(#paint57_linear_342_7)"/>
<g style="mix-blend-mode:soft-light" opacity="0.5">
<path d="M464.487 326.034L408.691 331.909L411.61 336.152L470.611 337.227L479.559 341.106L417.581 344.831L419.155 347.135L490.176 348.613L464.487 326.034Z" fill="#92AECA"/>
</g>
<g style="mix-blend-mode:soft-light" opacity="0.5">
<path d="M520.589 375.339L431.654 365.317L435.936 371.538L526.368 380.427L520.589 375.339Z" fill="#92AECA"/>
</g>
<g style="mix-blend-mode:soft-light">
<path d="M554.17 404.869L470.611 402.469L502.215 421.362L576.211 424.261L554.17 404.869Z" fill="#A5A895"/>
</g>
<path d="M413.107 470.571L420.653 422.783L335.866 208.626L315.879 192.92L253.171 155.999L211.431 253.343L234.125 274.463L215.405 266.629L211.431 472.568L413.107 470.571Z" fill="url(#paint58_linear_342_7)"/>
<path style="mix-blend-mode:multiply" opacity="0.8" d="M230.227 341.874L271.834 364.914L277.248 343.39L234.125 274.482L211.431 253.362L253.171 156.018L239.597 204.92L246.394 258.334L284.794 347.902L294.202 353.067L284.794 298.789L282.24 270.277L346.925 426.162L388.339 469.304L405.927 433.842L375.475 308.658L420.653 422.763L413.107 470.571L211.507 472.491L215.482 266.571L230.227 341.874ZM294.605 426.162L325.901 432.709V420.824L285.735 355.544L294.605 426.162Z" fill="url(#paint59_linear_342_7)"/>
<path style="mix-blend-mode:multiply" opacity="0.5" d="M211.431 253.342L246.375 258.315L265.191 302.168L284.794 347.883L296.928 471.377L280.186 472.568L283.527 367.045L277.248 343.371L234.125 274.462L211.431 253.342Z" fill="url(#paint60_linear_342_7)"/>
<path style="mix-blend-mode:multiply" opacity="0.5" d="M215.405 266.629L220.147 295.122L249.005 472.568H211.431L215.405 266.629Z" fill="url(#paint61_linear_342_7)"/>
<path style="mix-blend-mode:multiply" opacity="0.5" d="M234.125 274.462L265.191 302.168L246.375 258.315L211.431 253.342L234.125 274.462Z" fill="url(#paint62_linear_342_7)"/>
<path style="mix-blend-mode:multiply" opacity="0.5" d="M294.202 353.048L331.238 426.066L331.93 471.378L388.339 469.208L346.925 426.066L282.278 270.277L284.794 298.789L294.202 353.048Z" fill="url(#paint63_linear_342_7)"/>
<path style="mix-blend-mode:multiply" opacity="0.8" d="M282.278 264.363L276.019 213.714L253.171 160.011L282.278 264.363Z" fill="url(#paint64_linear_342_7)"/>
<g style="mix-blend-mode:soft-light" opacity="0.5">
<path d="M276.019 213.714L335.865 208.626L315.878 192.92L253.171 155.999L239.597 204.901H254.169L253.171 160.011L276.019 213.714Z" fill="#92AECA"/>
</g>
<g style="mix-blend-mode:soft-light" opacity="0.3">
<path d="M271.834 237.425L246.375 258.315L245.165 248.677L270.067 232.875L271.834 237.425Z" fill="#92AECA"/>
</g>
<g style="mix-blend-mode:soft-light" opacity="0.3">
<path d="M282.662 387.358L246.336 431.691L245.241 426.066L282.662 382.827V387.358Z" fill="#92AECA"/>
</g>
<g style="mix-blend-mode:soft-light" opacity="0.3">
<path d="M283.373 370.885L242.131 409.803L241.19 404.85L283.526 367.045L283.373 370.885Z" fill="#92AECA"/>
</g>
<g style="mix-blend-mode:soft-light" opacity="0.5">
<path d="M239.597 204.901L228.48 213.56L253.172 155.999L239.597 204.901Z" fill="#92AECA"/>
</g>
<g style="mix-blend-mode:soft-light" opacity="0.3">
<path d="M257.568 311.903L228.48 329.72L221.414 297.176L238.31 281.125L257.568 311.903Z" fill="#92AECA"/>
</g>
<g style="mix-blend-mode:soft-light">
<path d="M346.618 235.775L287.731 283.429L282.278 270.277L344.083 229.362L346.618 235.775Z" fill="#A5A895"/>
</g>
<g style="mix-blend-mode:soft-light">
<path d="M275.328 239.461L249.965 266.629L254.17 276.479L277.037 245.605L275.328 239.461Z" fill="#A5A895"/>
</g>
<path style="mix-blend-mode:multiply" opacity="0.5" d="M363.244 277.765L335.539 244.76L329.126 249.944L310.732 285.425V305.413L332.908 349.496L370.137 362.744L382.272 360.44L370.982 309.579L346.502 280.433H338.342L325.9 289.4L331.238 323L340.857 326.821H355.084L354.086 324.939L346.617 325.496L335.308 317.336L329.817 302.168L328.569 290.552L339.552 282.085L346.502 283.429L367.008 307.505L372.806 329.72L375.782 354.104L369.83 358.347L341.74 351.281L333.907 347.518L313.19 302.168L313.497 287.269L335.308 261.848L342.681 260.216L360.576 281.125L367.795 289.246L363.244 277.765Z" fill="url(#paint65_linear_342_7)"/>
<path style="mix-blend-mode:screen" opacity="0.78" d="M576.211 424.261L502.214 421.362L448.377 387.819L402.777 323.307L409.056 341.432L469.267 411.992L426.451 398.014L409.056 375.243L384.595 299.768L464.486 326.034L576.211 424.261Z" fill="url(#paint66_radial_342_7)"/>
<path style="mix-blend-mode:screen" opacity="0.5" d="M335.865 208.626L375.475 308.658L405.926 433.784L388.339 469.208L346.924 426.066L282.278 270.277L276.019 213.714L253.171 160.011L335.865 208.626Z" fill="url(#paint67_radial_342_7)"/>
<path d="M1451.33 470.168L1606.96 297.157L1680.88 283.045L1690.48 290.802V304.568L1745.28 261.368L1830.91 224.658L1861.36 343.602V468.402L1451.33 470.168Z" fill="url(#paint68_linear_342_7)"/>
<path style="mix-blend-mode:multiply" opacity="0.8" d="M1680.88 283.045L1665.52 352.568L1578.09 414.392V400.856L1499.77 454.098L1574 427.544L1638.7 417.848L1606.96 468.402H1635.11L1690.48 304.568V290.802L1680.88 283.045Z" fill="url(#paint69_linear_342_7)"/>
<path style="mix-blend-mode:multiply" opacity="0.8" d="M1830.91 224.658V286.52L1772.03 403.103L1680.88 454.098L1662.32 451.736L1653.41 414.277L1635.11 468.402L1746.8 470.168L1756.68 427.544L1837.36 344.043L1843.45 348.882L1817.84 470.168L1861.36 468.402V343.602L1830.91 224.658Z" fill="url(#paint70_linear_342_7)"/>
<path style="mix-blend-mode:multiply" opacity="0.8" d="M1655.92 468.401L1653.41 414.277L1672.57 357.598L1665.52 352.568L1578.09 414.392L1583.71 426.085L1638.7 417.848L1606.96 468.401H1655.92Z" fill="url(#paint71_linear_342_7)"/>
<path style="mix-blend-mode:multiply" opacity="0.8" d="M1837.36 344.043L1843.45 348.882L1861.36 375.666V343.602L1830.91 286.52L1773.77 399.646L1777.42 406.059L1837.36 344.043Z" fill="url(#paint72_linear_342_7)"/>
<g style="mix-blend-mode:soft-light" opacity="0.5">
<path d="M1557.12 352.568L1655.92 359.077L1639.43 371.019L1548.83 361.803L1557.12 352.568Z" fill="#A5A895"/>
</g>
<g style="mix-blend-mode:soft-light" opacity="0.5">
<path d="M1568.1 340.357L1660.19 356.35L1665.52 352.568L1572.81 335.134L1568.1 340.357Z" fill="#A5A895"/>
</g>
<g style="mix-blend-mode:soft-light" opacity="0.5">
<path d="M1828.55 291.205L1759.05 297.157L1690.48 304.568L1688.41 310.712L1809.45 300.959V303.762L1685.41 319.563L1680.59 333.829L1787.69 345.733V352.568L1677.87 341.874L1675.51 348.882L1789.88 367.775L1828.55 291.205Z" fill="#A5A895"/>
</g>
<g style="mix-blend-mode:soft-light">
<path d="M1560.35 412.914L1497.45 418.923L1467.94 451.736H1503.24L1560.35 412.914Z" fill="#A5A895"/>
</g>
<g style="mix-blend-mode:soft-light" opacity="0.5">
<path d="M1672.19 322.367L1656.35 309.215L1606.96 297.157L1680.88 283.045L1672.19 322.367Z" fill="#92AECA"/>
</g>
<g style="mix-blend-mode:soft-light" opacity="0.5">
<path d="M1830.91 286.52L1787.69 274.482H1728.63L1745.28 261.368L1830.91 224.658V286.52Z" fill="#92AECA"/>
</g>
<path style="mix-blend-mode:multiply" opacity="0.8" d="M1741.36 415.102V403.467L1756.69 361.803L1779.78 311.384L1748.24 363.243L1741.36 396.92L1727.92 427.793L1740.21 420.92L1741.36 415.102Z" fill="url(#paint73_linear_342_7)"/>
<path style="mix-blend-mode:multiply" opacity="0.8" d="M1578.09 400.856L1578.64 382.866L1584.4 359.077L1589.82 317.375L1576.32 371.019V402.066L1578.09 400.856Z" fill="url(#paint74_linear_342_7)"/>
<g style="mix-blend-mode:soft-light">
<path d="M1719.8 432.325L1655.39 422.571L1658.36 435.051L1709.63 438.027L1719.8 432.325Z" fill="#A5A895"/>
</g>
<g style="mix-blend-mode:soft-light">
<path d="M1831.14 407.134L1756.69 427.544L1753.84 439.774L1821.73 451.736L1831.14 407.134Z" fill="#A5A895"/>
</g>
<path style="mix-blend-mode:screen" opacity="0.78" d="M1589.82 317.375L1576.32 371.019V402.066L1503.24 451.736H1467.94L1589.82 317.375Z" fill="url(#paint75_radial_342_7)"/>
<defs>
<linearGradient id="paint0_linear_342_7" x1="1004" y1="475.392" x2="1004" y2="1.80469" gradientUnits="userSpaceOnUse">
<stop offset="0.02" stop-color="#6BA1DF"/>
<stop offset="0.18" stop-color="#696FCB"/>
<stop offset="0.4" stop-color="#6527AE"/>
<stop offset="0.69" stop-color="#3C1576"/>
<stop offset="1" stop-color="#0C0033"/>
</linearGradient>
<linearGradient id="paint1_linear_342_7" x1="1004" y1="475.392" x2="1004" y2="3.32178" gradientUnits="userSpaceOnUse">
<stop stop-color="#BEB8CB"/>
<stop offset="1" stop-color="#925CBF"/>
</linearGradient>
<linearGradient id="paint2_linear_342_7" x1="960" y1="468.401" x2="960" y2="228.017" gradientUnits="userSpaceOnUse">
<stop stop-color="#1B0834"/>
<stop offset="1" stop-color="#261B5B"/>
</linearGradient>
<linearGradient id="paint3_linear_342_7" x1="1920" y1="348.209" x2="1117.06" y2="348.209" gradientUnits="userSpaceOnUse">
<stop stop-color="#4C335C"/>
<stop offset="1" stop-color="#472484"/>
</linearGradient>
<linearGradient id="paint4_linear_342_7" x1="464911" y1="77405.9" x2="789792" y2="77405.9" gradientUnits="userSpaceOnUse">
<stop stop-color="#4C335C"/>
<stop offset="1" stop-color="#472484"/>
</linearGradient>
<linearGradient id="paint5_linear_342_7" x1="1551.65" y1="3935.79" x2="72220" y2="3935.79" gradientUnits="userSpaceOnUse">
<stop stop-color="#4C335C"/>
<stop offset="1" stop-color="#472484"/>
</linearGradient>
<linearGradient id="paint6_linear_342_7" x1="165506" y1="29471.8" x2="205741" y2="29471.8" gradientUnits="userSpaceOnUse">
<stop stop-color="#4C335C"/>
<stop offset="1" stop-color="#472484"/>
</linearGradient>
<linearGradient id="paint7_linear_342_7" x1="18140.1" y1="13485.4" x2="28093.4" y2="13485.4" gradientUnits="userSpaceOnUse">
<stop stop-color="#4C335C"/>
<stop offset="1" stop-color="#472484"/>
</linearGradient>
<linearGradient id="paint8_linear_342_7" x1="13536.1" y1="25583.8" x2="15046.8" y2="25583.8" gradientUnits="userSpaceOnUse">
<stop stop-color="#4C335C"/>
<stop offset="1" stop-color="#472484"/>
</linearGradient>
<linearGradient id="paint9_linear_342_7" x1="8738.88" y1="14282.5" x2="49665.6" y2="14282.5" gradientUnits="userSpaceOnUse">
<stop stop-color="#4C335C"/>
<stop offset="1" stop-color="#472484"/>
</linearGradient>
<linearGradient id="paint10_linear_342_7" x1="11573.4" y1="6228.35" x2="18913.5" y2="6228.35" gradientUnits="userSpaceOnUse">
<stop stop-color="#4C335C"/>
<stop offset="1" stop-color="#472484"/>
</linearGradient>
<linearGradient id="paint11_linear_342_7" x1="1065.79" y1="440.811" x2="1065.79" y2="209.816" gradientUnits="userSpaceOnUse">
<stop stop-color="#220936"/>
<stop offset="1" stop-color="#331469"/>
</linearGradient>
<linearGradient id="paint12_linear_342_7" x1="51287.1" y1="23275.4" x2="51287.1" y2="19309.3" gradientUnits="userSpaceOnUse">
<stop stop-color="#1B0834"/>
<stop offset="1" stop-color="#261B5B"/>
</linearGradient>
<linearGradient id="paint13_linear_342_7" x1="257760" y1="88791.3" x2="257760" y2="61237.6" gradientUnits="userSpaceOnUse">
<stop stop-color="#1B0834"/>
<stop offset="1" stop-color="#261B5B"/>
</linearGradient>
<linearGradient id="paint14_linear_342_7" x1="840.519" y1="440.811" x2="840.519" y2="306.968" gradientUnits="userSpaceOnUse">
<stop stop-color="#170033"/>
<stop offset="1" stop-color="#271339"/>
</linearGradient>
<linearGradient id="paint15_linear_342_7" x1="965.702" y1="440.811" x2="965.702" y2="209.144" gradientUnits="userSpaceOnUse">
<stop stop-color="#2D1351"/>
<stop offset="1" stop-color="#573589"/>
</linearGradient>
<linearGradient id="paint16_linear_342_7" x1="70358.3" y1="18492.7" x2="70358.3" y2="17338.4" gradientUnits="userSpaceOnUse">
<stop stop-color="#170033"/>
<stop offset="1" stop-color="#271339"/>
</linearGradient>
<linearGradient id="paint17_linear_342_7" x1="151417" y1="27487.1" x2="151417" y2="23475.4" gradientUnits="userSpaceOnUse">
<stop stop-color="#170033"/>
<stop offset="1" stop-color="#271339"/>
</linearGradient>
<linearGradient id="paint18_linear_342_7" x1="-143046" y1="79936" x2="-376596" y2="79936" gradientUnits="userSpaceOnUse">
<stop stop-color="#4C335C"/>
<stop offset="1" stop-color="#472484"/>
</linearGradient>
<linearGradient id="paint19_linear_342_7" x1="-118005" y1="59192.2" x2="-197963" y2="59192.2" gradientUnits="userSpaceOnUse">
<stop stop-color="#4C335C"/>
<stop offset="1" stop-color="#472484"/>
</linearGradient>
<linearGradient id="paint20_linear_342_7" x1="55223.8" y1="21476.4" x2="85276.6" y2="21476.4" gradientUnits="userSpaceOnUse">
<stop stop-color="#4C335C"/>
<stop offset="1" stop-color="#472484"/>
</linearGradient>
<linearGradient id="paint21_linear_342_7" x1="10644.9" y1="25790.1" x2="10864.3" y2="25790.1" gradientUnits="userSpaceOnUse">
<stop stop-color="#4C335C"/>
<stop offset="1" stop-color="#472484"/>
</linearGradient>
<linearGradient id="paint22_linear_342_7" x1="52715.3" y1="14319.2" x2="58080.1" y2="14319.2" gradientUnits="userSpaceOnUse">
<stop stop-color="#4C335C"/>
<stop offset="1" stop-color="#472484"/>
</linearGradient>
<linearGradient id="paint23_linear_342_7" x1="883.258" y1="322.943" x2="801.754" y2="322.943" gradientUnits="userSpaceOnUse">
<stop stop-color="#6A5790"/>
<stop offset="1" stop-color="#8055B5"/>
</linearGradient>
<linearGradient id="paint24_linear_342_7" x1="16402.3" y1="2112.28" x2="16781.8" y2="2112.28" gradientUnits="userSpaceOnUse">
<stop stop-color="#6A5790"/>
<stop offset="1" stop-color="#8055B5"/>
</linearGradient>
<linearGradient id="paint25_linear_342_7" x1="-223162" y1="49028.4" x2="-368853" y2="49028.4" gradientUnits="userSpaceOnUse">
<stop stop-color="#4C335C"/>
<stop offset="1" stop-color="#472484"/>
</linearGradient>
<linearGradient id="paint26_linear_342_7" x1="72329.4" y1="17255.1" x2="79819.8" y2="17255.1" gradientUnits="userSpaceOnUse">
<stop stop-color="#4C335C"/>
<stop offset="1" stop-color="#472484"/>
</linearGradient>
<linearGradient id="paint27_linear_342_7" x1="95985.7" y1="25172.7" x2="122130" y2="25172.7" gradientUnits="userSpaceOnUse">
<stop stop-color="#4C335C"/>
<stop offset="1" stop-color="#472484"/>
</linearGradient>
<linearGradient id="paint28_linear_342_7" x1="40426.4" y1="13066.1" x2="43830.2" y2="13066.1" gradientUnits="userSpaceOnUse">
<stop stop-color="#4C335C"/>
<stop offset="1" stop-color="#472484"/>
</linearGradient>
<linearGradient id="paint29_linear_342_7" x1="78664.8" y1="6861.78" x2="89798.6" y2="6861.78" gradientUnits="userSpaceOnUse">
<stop stop-color="#4C335C"/>
<stop offset="1" stop-color="#472484"/>
</linearGradient>
<linearGradient id="paint30_linear_342_7" x1="35800.2" y1="32508.8" x2="42359.7" y2="32508.8" gradientUnits="userSpaceOnUse">
<stop stop-color="#4C335C"/>
<stop offset="1" stop-color="#472484"/>
</linearGradient>
<linearGradient id="paint31_linear_342_7" x1="12921.9" y1="3547.91" x2="13404.9" y2="3547.91" gradientUnits="userSpaceOnUse">
<stop stop-color="#4C335C"/>
<stop offset="1" stop-color="#472484"/>
</linearGradient>
<linearGradient id="paint32_linear_342_7" x1="145752" y1="12758.3" x2="197657" y2="12758.3" gradientUnits="userSpaceOnUse">
<stop stop-color="#4C335C"/>
<stop offset="1" stop-color="#472484"/>
</linearGradient>
<linearGradient id="paint33_linear_342_7" x1="37993.7" y1="6557.67" x2="39996.8" y2="6557.67" gradientUnits="userSpaceOnUse">
<stop stop-color="#6A5790"/>
<stop offset="1" stop-color="#8055B5"/>
</linearGradient>
<linearGradient id="paint34_linear_342_7" x1="9128.19" y1="18012.1" x2="9601.46" y2="18012.1" gradientUnits="userSpaceOnUse">
<stop stop-color="#4C335C"/>
<stop offset="1" stop-color="#472484"/>
</linearGradient>
<linearGradient id="paint35_linear_342_7" x1="31264.6" y1="8932.11" x2="33080.1" y2="8932.11" gradientUnits="userSpaceOnUse">
<stop stop-color="#4C335C"/>
<stop offset="1" stop-color="#472484"/>
</linearGradient>
<linearGradient id="paint36_linear_342_7" x1="28220.7" y1="10711.1" x2="29628.7" y2="10711.1" gradientUnits="userSpaceOnUse">
<stop stop-color="#4C335C"/>
<stop offset="1" stop-color="#472484"/>
</linearGradient>
<linearGradient id="paint37_linear_342_7" x1="42465" y1="2116.76" x2="46327.1" y2="2116.76" gradientUnits="userSpaceOnUse">
<stop stop-color="#4C335C"/>
<stop offset="1" stop-color="#472484"/>
</linearGradient>
<linearGradient id="paint38_linear_342_7" x1="69792.5" y1="9797.99" x2="79085.3" y2="9797.99" gradientUnits="userSpaceOnUse">
<stop stop-color="#4C335C"/>
<stop offset="1" stop-color="#472484"/>
</linearGradient>
<linearGradient id="paint39_linear_342_7" x1="97949.5" y1="30762.1" x2="97949.5" y2="23797" gradientUnits="userSpaceOnUse">
<stop stop-color="#1B0834"/>
<stop offset="1" stop-color="#261B5B"/>
</linearGradient>
<linearGradient id="paint40_linear_342_7" x1="82950.7" y1="17924.5" x2="82950.7" y2="16392.8" gradientUnits="userSpaceOnUse">
<stop stop-color="#170033"/>
<stop offset="1" stop-color="#271339"/>
</linearGradient>
<linearGradient id="paint41_linear_342_7" x1="20315.5" y1="23022.3" x2="21185.7" y2="23022.3" gradientUnits="userSpaceOnUse">
<stop stop-color="#4C335C"/>
<stop offset="1" stop-color="#472484"/>
</linearGradient>
<linearGradient id="paint42_linear_342_7" x1="145121" y1="15758.8" x2="183673" y2="15758.8" gradientUnits="userSpaceOnUse">
<stop stop-color="#170033"/>
<stop offset="1" stop-color="#271339"/>
</linearGradient>
<linearGradient id="paint43_linear_342_7" x1="58988.6" y1="11557.8" x2="64381.9" y2="11557.8" gradientUnits="userSpaceOnUse">
<stop stop-color="#4C335C"/>
<stop offset="1" stop-color="#472484"/>
</linearGradient>
<linearGradient id="paint44_linear_342_7" x1="21760" y1="27453.5" x2="21760" y2="24869.6" gradientUnits="userSpaceOnUse">
<stop stop-color="#2D1351"/>
<stop offset="1" stop-color="#573589"/>
</linearGradient>
<linearGradient id="paint45_linear_342_7" x1="34086.8" y1="25925.4" x2="38892.6" y2="25925.4" gradientUnits="userSpaceOnUse">
<stop stop-color="#4C335C"/>
<stop offset="1" stop-color="#472484"/>
</linearGradient>
<linearGradient id="paint46_linear_342_7" x1="-66978.9" y1="22292.3" x2="-73737.4" y2="22292.3" gradientUnits="userSpaceOnUse">
<stop stop-color="#4C335C"/>
<stop offset="1" stop-color="#472484"/>
</linearGradient>
<linearGradient id="paint47_linear_342_7" x1="28238" y1="12819.8" x2="35033" y2="12819.8" gradientUnits="userSpaceOnUse">
<stop stop-color="#4C335C"/>
<stop offset="1" stop-color="#472484"/>
</linearGradient>
<linearGradient id="paint48_linear_342_7" x1="865.881" y1="209.816" x2="865.881" y2="149.259" gradientUnits="userSpaceOnUse">
<stop stop-color="#411440"/>
<stop offset="1" stop-color="#362C68"/>
</linearGradient>
<linearGradient id="paint49_linear_342_7" x1="15267.1" y1="3983.69" x2="15267.1" y2="3874.53" gradientUnits="userSpaceOnUse">
<stop stop-color="#2D1351"/>
<stop offset="1" stop-color="#573589"/>
</linearGradient>
<linearGradient id="paint50_linear_342_7" x1="1085.41" y1="209.816" x2="1085.41" y2="145.745" gradientUnits="userSpaceOnUse">
<stop stop-color="#2B133E"/>
<stop offset="1" stop-color="#50336D"/>
</linearGradient>
<linearGradient id="paint51_linear_342_7" x1="-48259.7" y1="16062" x2="-56094.5" y2="16062" gradientUnits="userSpaceOnUse">
<stop stop-color="#4C335C"/>
<stop offset="1" stop-color="#472484"/>
</linearGradient>
<linearGradient id="paint52_linear_342_7" x1="50179.8" y1="6393.82" x2="58014.6" y2="6393.82" gradientUnits="userSpaceOnUse">
<stop stop-color="#4C335C"/>
<stop offset="1" stop-color="#472484"/>
</linearGradient>
<linearGradient id="paint53_linear_342_7" x1="470.612" y1="470.168" x2="470.612" y2="299.768" gradientUnits="userSpaceOnUse">
<stop stop-color="#15042C"/>
<stop offset="1" stop-color="#402766"/>
</linearGradient>
<linearGradient id="paint54_linear_342_7" x1="151244" y1="61055.9" x2="175536" y2="61055.9" gradientUnits="userSpaceOnUse">
<stop stop-color="#4C335C"/>
<stop offset="1" stop-color="#472484"/>
</linearGradient>
<linearGradient id="paint55_linear_342_7" x1="32236" y1="20821.9" x2="33129.3" y2="20821.9" gradientUnits="userSpaceOnUse">
<stop stop-color="#4C335C"/>
<stop offset="1" stop-color="#472484"/>
</linearGradient>
<linearGradient id="paint56_linear_342_7" x1="46207.7" y1="31636.7" x2="48232" y2="31636.7" gradientUnits="userSpaceOnUse">
<stop stop-color="#4C335C"/>
<stop offset="1" stop-color="#472484"/>
</linearGradient>
<linearGradient id="paint57_linear_342_7" x1="53868.7" y1="61055.9" x2="56350.1" y2="61055.9" gradientUnits="userSpaceOnUse">
<stop stop-color="#4C335C"/>
<stop offset="1" stop-color="#472484"/>
</linearGradient>
<linearGradient id="paint58_linear_342_7" x1="174996" y1="127471" x2="174996" y2="75271.6" gradientUnits="userSpaceOnUse">
<stop stop-color="#15042C"/>
<stop offset="1" stop-color="#402766"/>
</linearGradient>
<linearGradient id="paint59_linear_342_7" x1="-161675" y1="101342" x2="-184474" y2="101342" gradientUnits="userSpaceOnUse">
<stop stop-color="#4C335C"/>
<stop offset="1" stop-color="#472484"/>
</linearGradient>
<linearGradient id="paint60_linear_342_7" x1="72486.8" y1="75903.7" x2="76294" y2="75903.7" gradientUnits="userSpaceOnUse">
<stop stop-color="#4C335C"/>
<stop offset="1" stop-color="#472484"/>
</linearGradient>
<linearGradient id="paint61_linear_342_7" x1="32912.8" y1="72044.7" x2="33648.1" y2="72044.7" gradientUnits="userSpaceOnUse">
<stop stop-color="#4C335C"/>
<stop offset="1" stop-color="#472484"/>
</linearGradient>
<linearGradient id="paint62_linear_342_7" x1="46546.1" y1="14935.2" x2="48051.4" y2="14935.2" gradientUnits="userSpaceOnUse">
<stop stop-color="#4C335C"/>
<stop offset="1" stop-color="#472484"/>
</linearGradient>
<linearGradient id="paint63_linear_342_7" x1="84891.2" y1="70488.6" x2="90750" y2="70488.6" gradientUnits="userSpaceOnUse">
<stop stop-color="#4C335C"/>
<stop offset="1" stop-color="#472484"/>
</linearGradient>
<linearGradient id="paint64_linear_342_7" x1="25081" y1="27975" x2="25522.3" y2="27975" gradientUnits="userSpaceOnUse">
<stop stop-color="#4C335C"/>
<stop offset="1" stop-color="#472484"/>
</linearGradient>
<linearGradient id="paint65_linear_342_7" x1="57606.5" y1="37320" x2="60272" y2="37320" gradientUnits="userSpaceOnUse">
<stop stop-color="#4C335C"/>
<stop offset="1" stop-color="#472484"/>
</linearGradient>
<radialGradient id="paint66_radial_342_7" cx="0" cy="0" r="1" gradientUnits="userSpaceOnUse" gradientTransform="translate(480.403 362.014) rotate(180) scale(80.7936)">
<stop stop-color="#3B1683"/>
<stop offset="1" stop-color="#1D0024"/>
</radialGradient>
<radialGradient id="paint67_radial_342_7" cx="0" cy="0" r="1" gradientUnits="userSpaceOnUse" gradientTransform="translate(126789 99072.1) scale(9699.95 19634)">
<stop stop-color="#3B1683"/>
<stop offset="1" stop-color="#1D0024"/>
</radialGradient>
<linearGradient id="paint68_linear_342_7" x1="57757.4" y1="98654.7" x2="57757.4" y2="67258.8" gradientUnits="userSpaceOnUse">
<stop stop-color="#15042C"/>
<stop offset="1" stop-color="#402766"/>
</linearGradient>
<linearGradient id="paint69_linear_342_7" x1="24297.7" y1="65478.6" x2="43241.3" y2="65478.6" gradientUnits="userSpaceOnUse">
<stop stop-color="#4C335C"/>
<stop offset="1" stop-color="#472484"/>
</linearGradient>
<linearGradient id="paint70_linear_342_7" x1="8544.87" y1="82956.8" x2="35206.5" y2="82956.8" gradientUnits="userSpaceOnUse">
<stop stop-color="#4C335C"/>
<stop offset="1" stop-color="#472484"/>
</linearGradient>
<linearGradient id="paint71_linear_342_7" x1="13754.1" y1="43191.3" x2="18403.7" y2="43191.3" gradientUnits="userSpaceOnUse">
<stop stop-color="#4C335C"/>
<stop offset="1" stop-color="#472484"/>
</linearGradient>
<linearGradient id="paint72_linear_342_7" x1="4448.78" y1="40499.5" x2="8444.65" y2="40499.5" gradientUnits="userSpaceOnUse">
<stop stop-color="#4C335C"/>
<stop offset="1" stop-color="#472484"/>
</linearGradient>
<linearGradient id="paint73_linear_342_7" x1="5515.19" y1="40883.6" x2="6915.9" y2="40883.6" gradientUnits="userSpaceOnUse">
<stop stop-color="#4C335C"/>
<stop offset="1" stop-color="#472484"/>
</linearGradient>
<linearGradient id="paint74_linear_342_7" x1="3897.54" y1="29399.5" x2="3992.29" y2="29399.5" gradientUnits="userSpaceOnUse">
<stop stop-color="#4C335C"/>
<stop offset="1" stop-color="#472484"/>
</linearGradient>
<radialGradient id="paint75_radial_342_7" cx="0" cy="0" r="1" gradientUnits="userSpaceOnUse" gradientTransform="translate(26296.5 48194.4) scale(4072.07 4489.02)">
<stop stop-color="#3B1683"/>
<stop offset="1" stop-color="#1D0024"/>
</radialGradient>
</defs>
</svg>
