<svg width="750" height="375" viewBox="0 0 750 375" fill="none" xmlns="http://www.w3.org/2000/svg">
<path d="M732.5 80.5L726.5 49L696.5 62L698 89L731 83.5L732.5 80.5Z" fill="#3D1448"/>
<path d="M641 217.5L638.5 215.5L624.5 220.5L612.5 229L599.5 279.5L593 290L584 299L561.5 336L571.5 335.5L575 338.5L584.5 329.5L589 326.5L608.5 309.5L612.5 295L605.5 282.5L620 241L633.5 234.5L641 225V217.5Z" fill="#240C38"/>
<path d="M649.5 144L657 78.5L633 118L636 163.5L640 169L649.5 144Z" fill="#2E143E"/>
<path d="M595.5 142.5L581.5 183L586 160.5L586.5 130L585.5 122L585 113.5L583.5 97.5L591.5 92.5L594 103.5L595 119.5L596 122L603 103V77H610L613 91.5L595.5 142.5Z" fill="#1B0734"/>
<path d="M569.5 243.5L570 225L562 258V285L554 312L549 331L556 330L563 325.5L564 324L578.5 304L583.5 297.5L589 289L582.5 287L573.5 271.5L569.5 243.5Z" fill="#2B1038"/>
<path d="M548 336.5L549 331L556 330L563.5 324.5L583.5 297L589 288.5L598 279L608.5 226L578 217.5L571 222.5L572 211.5L578 215.5H593L603.5 213L617.5 206L625.5 209L635 178L640 173L625.5 220L612.5 229L599.5 279.5L593 290L584 299L579.5 306.5L561.5 336L548 336.5Z" fill="#19001E"/>
<path d="M598 279L608.5 226L578 217.5L571 222.5L569.5 227V243.5L573.5 271.5L582.5 287L589 289V288.5L598 279Z" fill="#331944"/>
<path d="M564.5 213L572 211L571 222.5L562 258.361V285.5L554 312L556 295.5L552 291L551.5 276L555.5 248L559 244L561.5 215.5L564.5 213Z" fill="#170424"/>
<path d="M541 304L516.5 308L522 287L528 277.5L545 244.5L549.5 258L544 302L541 304Z" fill="#361A4F"/>
<path d="M541 304L516.5 307.5L509 335L508 339L537 337.5L541 304Z" fill="#301045"/>
<path d="M556 359.5L553.5 357.5L539.5 359.5L544.5 363.5L554.5 361L556 359.5Z" fill="#452459"/>
<path d="M554.5 361L544.5 363.5L539.5 359.5L535 364L533.946 365.5H553.5L556 359.5L554.5 361Z" fill="#320935"/>
<path d="M569.5 357.5L575.5 338.5L558.5 351.5L560 360.5L569.5 357.5Z" fill="#06000D"/>
<path d="M505 341.5L508 339L572 335L575.5 338.5L558.5 351.5L529.5 352.5L504 342.5L504.5 341.5H505Z" fill="#321A50"/>
<path d="M501 351.5L502 349L502.011 348.966L504 342.5L529.5 352.5L558.5 351.5L560 360.5L554.5 362.5L556 359.5L553.5 357.5L539.5 359.5L535 364L500.5 360.5L501 351.5Z" fill="#1A0030"/>
<path d="M504 354L502 349L514 355.5L529.5 356.5L515.5 359L504 354Z" fill="#321A4F"/>
<path d="M469.5 354.5L468 356.5L493 359.5L488 352.5L469.5 354.5Z" fill="#1B0032"/>
<path d="M539 169.5L510.5 191L508 175L506.5 159L532 136L539 134V169.5Z" fill="#2C195A"/>
<path d="M500.5 341.5L512 283L510.5 282L478 300L480.5 340L500.5 341.5Z" fill="#2F1249"/>
<path d="M480.5 340L478 300L471 304L455.5 305.5L454.5 307.5L451.5 336.5L466 338.5L480.5 340Z" fill="#482D67"/>
<path d="M476 297.5L476.5 259L460.5 261L458 264L454.5 304L466.5 301.5L476 297.5Z" fill="#482D67"/>
<path d="M451.5 264.5L439.5 277L457.5 208.5L460 171.5L466 168L464.5 184L462.5 187L455 274.5L451.5 264.5Z" fill="#2F134D"/>
<path d="M447 178.5L460 171.5L457.5 208.5L439.5 277.5L443.5 227.5V209.5L447 178.5Z" fill="#341F5A"/>
<path d="M420.5 281V279L435.5 264L443.5 209.604V227.5L436 325L426.5 323.5L437.5 269.5L427.5 274.5L420.5 281Z" fill="#3D2973"/>
<path d="M443.5 209.5L426 223.5L424 234.686V256L419.5 282L415 286.5L404.5 320L426.5 323.5L437.5 269.5L427.5 274.5L420.5 281V279L435.5 264L443.5 209.5Z" fill="#483A7F"/>
<path d="M426 223.5L418 224L422 255.5L407 296.5L405 306L404 310L402 320H404.5L415 286.5L419.5 282L424 256V235L426 223.5Z" fill="#342361"/>
<path d="M413 234L391.5 318L402 320L407 296.5L422 255.5L418 224L413 234Z" fill="#362171"/>
<path d="M377.5 266L375 264.5L384 304.5L377.5 266Z" fill="#4843A8"/>
<path d="M365.5 247L356.5 245.5L365 279.5L369.5 283L374.5 318H391.5L394.5 308L381.5 269.5L377.5 266L384 304.5L375 264.5L365.5 247Z" fill="#5D48B1"/>
<path d="M369.5 283L374.5 318L364 280L354.5 246L356.5 245.5L365 279.5L369.5 283Z" fill="#473695"/>
<path d="M354 318L348.5 317.5L348 291L354 318Z" fill="#463490"/>
<path d="M348 222.5L333 210.5L343 258L344 258.5H347.5L348 291L354 318H374.5L348 222.5Z" fill="#626EE3"/>
<path d="M330 252.5L331 252L341 258.5H347.5L348 291L349 320L332 322V321.5H333L330 252.5Z" fill="#6853AE"/>
<path d="M328 187L315.5 165.5L314 169L331 250.5L343 258L328 187Z" fill="#7865B1"/>
<path d="M315.5 165.5L311.5 164.5L315 180L310 186.5L317.5 202.5L317 207L326.5 237L327.5 257L332 321.5H333L330 252.5L331 252L341 258.5H344L343 258L331 250.5L314 169L315.5 165.5Z" fill="#41337B"/>
<path d="M321 282.5V240.5L326.5 237L332 322L325.5 323L323.5 286L321 282.5Z" fill="#6B56AE"/>
<path d="M317.5 202.5L304.5 174.5L299 180L294 189L310.5 227L321 240.5L326.5 237L317 206.5L317.5 202.5Z" fill="#7663B1"/>
<path d="M301.5 145L297.5 143.5L306.5 174.5L315 180L311.5 164L301.5 145Z" fill="#7C6AB2"/>
<path d="M309.5 284.5L321 282.5V240.5L311.5 249L308.5 254L309.5 284.5Z" fill="#4E3B90"/>
<path d="M304.5 174.5H306.5L298 143.5L277.5 159L274 165L281.5 187L288.5 185.5L292 187.5L309 231.5L311.5 249L321 240.5L310.5 227L294 189L299 180L304.5 174.5Z" fill="#48397B"/>
<path d="M303.5 215L292 187.5V203.205L294 222.5L302 233L309 242L311.5 249L309 231L303.5 215Z" fill="#5A469A"/>
<path d="M248 257.5L243.5 222.5L254 226L270 237L281 258L277 284L270 279L266.5 267H260L249.5 264L249 262L248.75 260.75L248 257.5Z" fill="#512D7A"/>
<path d="M243.5 222.5L242.5 213.5L252.5 215.5L273 230L284.5 244L286.5 201.5L281.5 187L288.5 185.5L292 187.5V203.5L294 222.5L309 241.5L311.5 249L308.5 254L307.5 244L305.5 241L293.5 231L288 248.5L288.5 258.5L280.5 260.5L281 258L270 237L253.5 226L243.5 222.5Z" fill="#341044"/>
<path d="M270.5 165L254.5 151L253.5 158.5V169.25L252.5 187.5L252 201.5L252.5 215.5L273 230.5L284.5 244L287 207L286.5 201.5L274 165L272 194.5L270.5 207L266 218.5L267.5 208V196.5L270.5 165Z" fill="#5C439B"/>
<path d="M255 144L232.5 130.5V123.5L255.5 135.5L255 144Z" fill="#361043"/>
<path d="M224.381 142H232.5L234 209L238.5 212.5L243 213.5V217.5L231.5 212.5L234 242.5L237.5 258L230.5 251L224 232L224.381 142Z" fill="#160112"/>
<path d="M232.5 123.5L224 119L224.5 129.5L232.5 130.5V123.5Z" fill="#160111"/>
<path d="M232.5 142V130.5L224.5 128.5L224 135.5V142H232.5Z" fill="#180220"/>
<path d="M220 202L215.5 198.5L219.5 215.5L221.5 224L222 227.5L224 232L224.5 122L222 140.5L220.5 159L220 202Z" fill="#4A2D54"/>
<path d="M220.5 159L214 153L211.5 180L215.5 198.5L220 202L220.5 159Z" fill="#310935"/>
<path d="M221.5 124L207 113L209 140L214 153L220.5 159L223 134L221.5 124Z" fill="#533C6F"/>
<path d="M224.5 122L206.5 103.5L207 113L221.5 124L223 134L224.5 122Z" fill="#58478B"/>
<path d="M214 153L209 140L193 156L205 185L211.5 180L214 153Z" fill="#230422"/>
<path d="M189.5 147.5L179.5 126.5L207 113L209 140L193 156L189.5 147.5Z" fill="#190214"/>
<path d="M179.5 126.5L177 123L206.5 103.5L207 113L179.5 126.5Z" fill="#1B0328"/>
<path d="M209 53.5L167 40L165.5 62L164.5 73V84L207 77L209 53.5Z" fill="#24041B"/>
<path d="M167.5 105L177 123L165.5 118.5L152 62L156 61.5L155 58.5L160 58L161.5 80.5L164.5 84L167.5 105Z" fill="#350A36"/>
<path d="M166.5 124L179.5 126.5L177 123L165.5 118L166.5 124Z" fill="#380E56"/>
<path d="M258 308.5L259.5 311.5L204.5 271.5L185.5 233L182 215.5L197.5 222.5L231.5 251.5L253 274L258 291.5V308.5Z" fill="#13051D"/>
<path d="M195 256.5L176.5 229.5L142.5 216.5L165 252L166 262L203 274.5L200 268.5L195 256.5Z" fill="#21091D"/>
<path d="M123 131L124.5 123L118.5 132.5L110.5 123.5L115 136.5L120.5 151V154.5L121.5 160L123.5 169L127 186.5L142.5 228L152.5 259.5L170 325.5H173.5L171 303L165 252L138.5 210L143 205.5L129.5 186.5L126 159.5L123 136V131.5V131Z" fill="#0A000A"/>
<path d="M120 226L111.5 224L116 239L121 254L151 253L143 228L120 226Z" fill="#100121"/>
<path d="M102 181.5V146L120.5 154.5L127 185.5L143 228L120 226L102 181.5Z" fill="#1C0921"/>
<path d="M24 300.5L43.5 357.5L78.5 356L87.5 351.5L77 333.5L68 332L66 329.5L53.5 302V292H51.5L24 289V300.5Z" fill="#09000E"/>
<path d="M77 215.5L81 221.5L112 224.5L98 192.5L99 207L104.5 216.5L77 215.5Z" fill="#0C0118"/>
<path d="M92 177L65 169.5L68 201.5L77 215.5L104.5 216.5L99 207L97.5 176.5L92 177Z" fill="#0C010D"/>
<path d="M23 124L0 77.5V360L43.5 357.5L24 300.5L26 129.5L23 124Z" fill="#080005"/>
<path d="M27.5 91.5L0 67.5V77.5L16.5 111L33 112.5L27.5 91.5Z" fill="#1C0A21"/>
<path d="M35.5 82.5L26 79L41 107L47.5 114L62.5 116L43 82L35.5 82.5Z" fill="#1C0A21"/>
<path d="M109 119L105.5 106H74.5L76 116L109 119Z" fill="#230E36"/>
<path d="M74.5 105L79 131.5L70.5 110.5L74.5 105Z" fill="#0F010F"/>
<path d="M105 104L97.5 91L72.5 96.5L74.5 105V106H105.5L105 104Z" fill="#220C2A"/>
<path d="M69.5 63L68.5 64L70 66.5L60.5 85.5L61.5 88L72 66L69.5 63Z" fill="#19081C"/>
<path d="M79 8.5L77.5 3.5L76.5 6L63.5 16.5L45 31.5L46.5 33.5V32L77 7.5L79 8.5Z" fill="#300A2D"/>
<path d="M55 13.5L63.5 16.5L76.6822 5.85816L77.5 3.5L76.6822 0H44.5L55 13.5Z" fill="#553269"/>
<path d="M44.7007 0H24L33 16.5L45 31.5L63.5 16.5L55 13.5L44.7007 0Z" fill="#4E235A"/>
<path d="M27.5 30.5L12.5 0L18.5 16.5L24.5 33L33.5 58L43 83L76 140V143L97.5 177L98 192.5L112 224.5L120 226L102 181.5V146L79 136V131.5L57 76.5L56 57.5L27.5 30.5Z" fill="#160215"/>
<path d="M12.5 0H0V67.5L35 83L43 82.5L33.5 57.5L12.5 0Z" fill="#1C0921"/>
<path d="M24 0H12.5L27.5 30.5L56 57.5L60.5 52.5L42 33L32.5 15.5L24 0Z" fill="#0F010B"/>
<path d="M45 31.5L33 16.5L42 33L69.5 63L45 31.5Z" fill="#1D0723"/>
<path d="M97.5 80L88.5 78.5L57.5 23L77 7.5L79 8.5L97.5 80Z" fill="#4D225A"/>
<path d="M79 8.5L76.5 0H86.5L91.5 19L94 29L99 49.5L100 53.5L120.5 88.5V91.5L127.5 108L97.5 91.3474V80L79 8.5Z" fill="#26041B"/>
<path d="M69.5 63L57 77.5L56 57.5L60 52.5L60.5 53L69.5 63Z" fill="#18081C"/>
<path d="M70 66.5L68.5 64L57 77.5L60.5 85.5L70 66.5Z" fill="#0B0009"/>
<path d="M61.5 88L72 66L80.5 77L72.5 96.5L74.5 105L70.5 110.5L61.5 88Z" fill="#0B0008"/>
<path d="M46.5 33.5V32L57.5 23L88.5 78.5L80.5 77L72 66.5L63.5 55.5L46.5 33.5Z" fill="#543169"/>
<path d="M97.5 91.3179V80L80.5 77L72.5 96.5L97.5 91.3179Z" fill="#150215"/>
<path d="M79 136L76.5 117L76 116L109 119L120.5 151V154.5L79 136Z" fill="#210C2A"/>
<path d="M107.5 114.5L127.5 108L97.5 91L105 104L107.5 114.5Z" fill="#0C010B"/>
<path d="M128 109L127.5 108L107.5 114.5L110.5 123.5L119 133.5L125.5 121L128 109Z" fill="#0E0117"/>
<path d="M26 79L0 67.5L27.5 91.5L33 112.5L47.5 114L41 107L26 79Z" fill="#190719"/>
<path d="M64 119L61.5 115L47.5 114L33 112.5L16.5 111L23 124L28.5 119H64Z" fill="#1A0926"/>
<path d="M23 124L26 129.5L76 143V140L63.8575 119H28.5L23 124Z" fill="#190719"/>
<path d="M76 143L26 129.5L65 169.5L92 177L97.5 176.5L76 143Z" fill="#270917"/>
<path d="M65 169.5L26 129.5L24.5 214L39.5 218.5L54 223L81 221.5L68 201.5L65 169.5Z" fill="#120517"/>
<path d="M51.5 292L54 223L39.5 218.5L24.5 214L24 289L51.5 292Z" fill="#120521"/>
<path d="M125.5 267L112 224.5L81 221.5L54 223L51.5 292H53.5L64.5 288.5L118.5 336H123.5L111 319L110 279L90.5 265L72.5 242V233.5L87.5 248L90.5 254L104.5 263.5L125.5 267Z" fill="#070007"/>
<path d="M77 333.5L87.5 351.5L118.5 336L64.5 288.5L53.5 292V302L66 329.5L68 332L77 333.5Z" fill="#200717"/>
<path d="M104.5 343L78.5 355.5L71 359.5L144 361.5L177.5 357L179 347.5L142.5 353L104.5 343Z" fill="#090013"/>
<path d="M125.5 267L145.5 306.5L110 281.5V279L90 265L72.5 242V233.5L87.5 248L90.5 254L104.5 263.5L125.5 267Z" fill="#160618"/>
<path d="M118.5 336L104.5 343L142 353.5L179.5 347.5L195.5 336L193 330L118.5 336Z" fill="#281147"/>
<path d="M145.5 306.5L110 281.5L111 319L123 336L151.5 333.5L145.5 306.5Z" fill="#09000F"/>
<path d="M152 257L151 253L121 253.5L125.5 267L145.5 306.5L151.5 333.5L172.5 332L152 257Z" fill="#0E0114"/>
<path d="M123 0H86.5L93 26L110 30L109 8L123 0Z" fill="#542B65"/>
<path d="M143 10.5L123 0L109 8L110 30L131 36L141.5 37L143 34V10.5Z" fill="#603F6C"/>
<path d="M146 18L143 15V34L141.5 37L136.5 36.5L132 36L110 30L93 26L94 29L134 37L143.5 41L148.5 62L148 65H144.5L97.5 44.5L99 49.5H105.5L150 68L164 124L165 138.5L169 177L179.5 214V222L176.5 229.5L195 256.5L202.5 274.5L214 312.5L215 314L219 329L217.5 331.5L212.5 332L179.5 325.5H170.5L172.5 332L193 330L195.5 336L192 349.5L274.5 346L278.5 343.5L259 311L204.5 271.5L186 232.5L182 215.5L175 189L170.5 137.5L167 124.5L155 73.5L152 62L146 18Z" fill="#0A000F"/>
<path d="M134 37L94 29L97.5 44.5L144.5 65H148L148.5 62L143.5 41L134 37Z" fill="#532B65"/>
<path d="M151 111L127.5 108L120.5 91.5V88.5L100 53.5L99 49.5H105.5L150 68L164 124L151 111Z" fill="#441E4C"/>
<path d="M151 111L127.5 108L122.5 131L150 144.5L169 177L164 124L151 111Z" fill="#32104D"/>
<path d="M150 144.5L122.5 131L123 136.5L129.5 186.5L143 205.5L179.5 213.5L169 177L150 144.5Z" fill="#4C2B50"/>
<path d="M138.5 210L143 205.5L179.5 213.5V213.966V222L176.5 229.5L142.5 217L138.5 210Z" fill="#1C091F"/>
<path d="M202.5 274L166 262L173.5 325.5H179.5L212.5 332L217.5 331.5L219 329L215 314L214 312.5L202.5 274Z" fill="#0D0114"/>
<path d="M226 237L230.5 251L197 222.5L182 215.5L175 189L170.5 137.5H175L189.5 147.5L202 176L226 237Z" fill="#381A4B"/>
<path d="M179.5 126.5L189.5 147.5L175 137.5H170.5L166.5 124L179.5 126.5Z" fill="#330936"/>
<path d="M161.5 80.5L164.5 84L165 70.5L167 40L162 32.5L146 18L152 62L156 61.5L155 58.5L160 58L161.5 80.5Z" fill="#532049"/>
<path d="M206.5 103.5L207 77L164.5 84L167.5 105L177 123L206.5 103.5Z" fill="#17010F"/>
<path d="M222.5 228.5L211.5 180L205 184L222.5 228.5Z" fill="#150112"/>
<path d="M223 77.5L209 53.5L206.5 77V103.524L224.5 122L223 77.5Z" fill="#624C74"/>
<path d="M249 262L253 274L237 258L234 242.5L231.5 212.5L243 217.5L243.5 222.5L249 262Z" fill="#37174D"/>
<path d="M238.5 212.5L234 209L232.5 142L254 159L252.5 188V215.5L242.5 213.5L238.5 212.5Z" fill="#2D0735"/>
<path d="M255 144L254 159L232.5 142V130.5L255 144Z" fill="#371151"/>
<path d="M269 178.5L273 180L272 195L270.5 207L266 218.5L266.5 213.5L267.5 208V196.5L269 178.5Z" fill="#23072F"/>
<path d="M273 180L269 178.5L270.5 165H274L273 180Z" fill="#321249"/>
<path d="M251 268L249.5 264L260 267H266.5L270 279L277 284L280.5 260.5L288.5 258.5V266.5V269.393V285L289 327.5L280.5 328.5L277.5 290.5L270 283L265 270L258.5 268H251Z" fill="#330C38"/>
<path d="M260 272L265 270L259 268H251L258 291.5L257.5 310L265 321L260 272Z" fill="#542770"/>
<path d="M191 355.5L195.5 336L179 347.5L177.5 357L191 355.5Z" fill="#190031"/>
<path d="M270 330L280.5 328.5L277.5 290.5L270 283L265 270L260 272L265 321L270 330Z" fill="#5E3D8D"/>
<path d="M311 324.5L308.5 254L307.5 244L305.5 241L293.5 231L288 248L289 327.5L311 324.5Z" fill="#5C4193"/>
<path d="M325.5 323L311 324.5L309.5 293L323.5 286L325.5 323Z" fill="#47338E"/>
<path d="M321 282.5L309.5 284.5V293L323.5 286L321 282.5Z" fill="#3A2A78"/>
<path d="M310 186.5L315 180L306.5 174.5H304.5L310 186.5Z" fill="#5B4B93"/>
<path d="M193.5 363L144 361.5L177.5 357L191 355L212 354.5L220 358L193.5 363Z" fill="#281147"/>
<path d="M0 375V360L39 357.5L78 356L71 359.5L147.5 361L145 361.5L193.5 363L220 358L212 354.5L191 355L192 349L241 347L275.5 345.5L260.5 354H275L294 349L299 345.5L301 347L451.5 356L468 356.5L493.5 359.5L515.5 361.5L525 362.5L535 364L534 365.5H598L608.5 366L655.5 368L673 368.5L742 371.5L749.5 372V375H194H0Z" fill="#100015"/>
<path d="M489 345.5H478.5L447 339.5L432 331.5L435 330L421.5 325L393.5 321L389.5 318H391.5H392L399.5 319.5L404.5 320L426.5 323.5L436 325L450.5 333L451.5 336.5L476 339.5L497.5 341L504.5 341.5L504 342.5L502 349L501 351.5H497.5L492.5 348.5L489 345.5Z" fill="#473383"/>
<path d="M478.5 345.5L468 356.5L451 356L301 347L299 345.5L294 349L275 354H260.5L275 345.5L278.5 343.5L270 330L280.5 328.5L289.5 327L311 324.5L349 320L348.5 317.5L389.5 318L394 321L422 325L435 330L432 331.5L447 339.5L478.5 345.5Z" fill="#2D063E"/>
<path d="M439.5 277L436 325L446.5 331L455 274.5L451.5 264.5L439.5 277Z" fill="#37194C"/>
<path d="M467 167.5L466 168L464.5 184L462.5 187L456 263L446.5 331L450.5 333L451.5 336.5L454.5 308L455.5 305.5L471 304L510.5 282L518 287H522.5L524.5 283.5L521.5 285L518.5 283L512 279L489.5 291.5L466.5 301.5L454.5 304L458 264L460.5 261L472 260L476.5 259L498 237L508.5 231H512V275.5L518 274.5L514 234L510.5 193.5L537 172L539 173.5L540 212.5L536.5 248.5L528 277.5L545 245L554 210L549.5 140L539 134V169.5L510.5 191L509 180.5L507.5 186.5L511 219L499.5 233.5L493.5 239.5L476 256L472 258.5H460.5L463 223L465.5 186L467 167.5Z" fill="#1B072A"/>
<path d="M467 162V167.5L465 190.25L463 213L460.5 258.5H472L476.024 255.978L479.5 253L485.5 247.5L492 241L498 235L500 233.5L501.25 231.25L504.5 227.5L511 219L509.5 204L507.5 186.5L498 156L491 157L488.5 163L487 192L481 220.5L485.5 193L487 158.5L467 162Z" fill="#341F5A"/>
<path d="M487 158.5L491 157L488.5 163L487 192L481 220.5L485.5 193L486 181L487 158.5Z" fill="#1D0830"/>
<path d="M512 275.5V231H508.5L498 237L476.5 259L476 297.5L489.5 291.5L512 279L521.5 285L518 274.5L512 275.5Z" fill="#2F134D"/>
<path d="M509 180.5L507.5 186.5L498 156L506.5 159L509 180.5Z" fill="#220B3E"/>
<path d="M524.5 283.5L528 277.5L536.5 248.5L540 212.5L539 173.5L537 172L510.5 193.5L513.5 233.5L518 274.5L521.5 285L524.5 283.5Z" fill="#341D56"/>
<path d="M489 345.5H478.5L469.5 354.5L488 352.5L492.5 348.5L489 345.5Z" fill="#321A51"/>
<path d="M500.5 360.5L501 351.5H497.5L492.5 348.5L488 352.5L493 359.5L500.5 360.5Z" fill="#160028"/>
<path d="M508 339L522.5 287H518L512 283L500.5 341.5H505L508 339Z" fill="#240730"/>
<path d="M544 302L541 304L537 337.5L544 337L545 319L550 287.5L552.5 292L551.5 276L555.5 248L559 244L561.5 215.5L564.5 213L564 204.5L553.5 206L554 210L545 244.5L549.5 258L544 302Z" fill="#200629"/>
<path d="M553.5 206L564 204.5L562.5 121.5L549.5 140L553.5 206Z" fill="#270C3E"/>
<path d="M578.5 178.5L563.5 192.5L562.5 121.5L562 110L583.5 97.5L587 130.5L578.5 178.5Z" fill="#2E1A53"/>
<path d="M586 160.5L587 130L578.5 178.5L563.5 192V204.5L564.5 213L572 211L581.5 183L586 160.5Z" fill="#26114E"/>
<path d="M556 295.5L552.5 291.5L550 287.5L546 311.5L545 319L544 337L548 336.5L554 312.5L556 295.5Z" fill="#250C43"/>
<path d="M578 215.5L571.5 211.5L595.5 142.5L597 149L613.5 140L633 117.5L640 169L625.5 209L617.5 206L603.5 213L593.5 215.5H578Z" fill="#2D133C"/>
<path d="M603 103L596 122L595 120L594 103.5L591.5 92.5L603 77V103Z" fill="#261352"/>
<path d="M597 149L595.5 142.5L613 91.5L612.5 62H615.5L654 23.5L658.5 64.5L657 78.5L634 117L613.5 140L597 149Z" fill="#3B173D"/>
<path d="M658 19.5L654 23.5L658.5 64.5L652.5 115L671.5 144L692.5 159.5L687.5 207.5V217.5L692 265.5L688 282.5L671 311L631.5 281.5L650 212L665 155.5L662 131H660.5V153.5L644 211L626 209L612 229.5L624.5 221L638.5 215.5L641 217.5V225L633.5 234.5L620 240.5L605.5 282.5L612.5 295L608.5 309.5L589 326.5L584.5 329.5L575 338.5L570.5 353L569 357L555 362L553.5 365.5L608.5 366.5L629 288.5L639.5 292.5L665 323.5L655 368L674.5 369L681 310L694.5 279L698 225L702 176.5L694.5 9.5L664.5 10.5L675.5 28L684 53L698 151.5L694.5 153.5L671.5 139.5L662 120L668.5 67.5L658 19.5Z" fill="#18041B"/>
<path d="M639.5 292.5L628.5 288L608.5 366L655 368L665 323.5L639.5 292.5Z" fill="#25114E"/>
<path d="M631.5 281.5L640.5 247.5L657.5 258.5L666 251L677.5 214H682.5V217.5L688.5 226L692.5 266L688 282.5L671 311L651 296.5L631.5 281.5Z" fill="#1D0A2E"/>
<path d="M657.5 258.5L640.5 247.5L665 155.5L662 131H660.5V153.5L644 211L628.5 209.5L640 173L637.5 175.5L649.5 144L652.5 115L671.5 143.5L692.5 159.5L688 207L688.5 226L682.5 218V214H677.5L666 251L657.5 258.5Z" fill="#2B0D2E"/>
<path d="M658 17L664.5 10.5L676 28.5L684 53L698.5 151.5L694.5 153.5L671.5 139.5L662 120L668.5 67.5L658 20V17Z" fill="#3A134C"/>
<path d="M750 0H718L723 30L695.5 51L696 52.5L722.5 33.5L724 35L726.5 49.5L732.5 80.5L731 83.5L698 89V90.5L733.5 85L741.5 129L734 208.5L732.5 236.5L698 222.5L731 237V276.5L728 280L694.5 278L694 279.5L728 281.5L730 282.5L729.5 311.5L735.5 339.5L743 375H750V0Z" fill="#12000B"/>
<path d="M718 0L694.5 9.5L696 51L723 30L718 0Z" fill="#2D1036"/>
<path d="M724 35L726.5 49L696.5 62L696 52L722.5 33.5L724 35Z" fill="#2F144B"/>
<path d="M733.5 85L698 90.5L702 177L734.5 210L742 129L734 87L733.5 85Z" fill="#2C1037"/>
<path d="M734.5 210L732.5 236.5L698 222.5L702 176.5L734.5 210Z" fill="#16001C"/>
<path d="M731 276.5V237L698 222.5L694.5 278L728 280L731 276.5Z" fill="#1D0A2D"/>
<path d="M730 312V282.5L728 281.5L712 280.5L694 279.5L680 310L699 318L730 312Z" fill="#260D38"/>
<path d="M674.5 369L742 371.5L737 341.5L730 312L699 317.5L680.5 310L677 339.5L674.5 369Z" fill="#100022"/>
</svg>
