<svg  viewBox="0 0 74 55" fill="none" xmlns="http://www.w3.org/2000/svg">
<path d="M49 31.5V31H46.5H43.5L42 30L41.5 29.5L40.5 29L39 28.5L37.5 27.5L37 21.5L37.5 17L38 14.5V12.5L38.5 11.5V11L39 10L40 9.5L39.5 8.5C39.584 6.68338 40.5 7.5 40.5 6.5L40 6L40.5 5L41.5 5.5C41.3338 4.50227 41.2967 3.93759 40.5 3C39.1826 1.58666 38.252 0.984909 36.5 0L33.5 0.5L31 2L30 4.5L30.5 7.5L31 9.5H27L24 12.5L21 14.5L19 17.5L15.5 24L13.5 26.5C12.9753 28.2745 12.4461 29.0728 11.5042 30.4937L11.5 30.5L13.5 34H12.5H11C9.33416 34.5776 8.44197 34.9741 7 36L3.5 37.5L1.5 39.5L0 41L1 42.5L2 43.5L3 44L3.5 43.5L6 42.5L7.5 42C7.83627 42.6466 8.04824 42.9831 8.5 43.5C8.84048 43.5893 9.06119 43.5971 9.5 43.5C9.89244 43.5944 10.1073 43.6142 10.5 43.5L13.5 41.5C13.7611 41.2795 13.8893 41.1635 14 41C14.4452 40.5234 14.8074 40.4816 15.5 40.5C15.8684 40.777 15.8019 41.0164 15.5 41.5L15 42L17.5 42.5L19.5 42L20 41.5C20.4445 41.4604 20.7585 41.5448 21 42C20.9292 42.4272 20.8372 42.6552 20.5 43C20.1116 43.166 19.8878 43.1508 19.5 43L14.5 42.5H12.5L10 44.5C10.1813 45.0644 9.6244 45.3996 9.5 46L8.5 47L7 50C6.71509 50.8904 6.75451 51.4249 7 52.5C7.21793 53.0423 7.38744 53.4075 8 54.5C8.58541 54.9651 8.91547 55.1101 9.5 54.5L10.5 52.5H12.5C14.1745 49.711 15.1517 48.2626 17.5 47.5L19 46.5L19.5 48.5C20.6762 47.0352 21.4661 46.5332 23 46H25.5L27 47.5L33 47L34.5 44C36.9165 43.4571 38.1895 42.9532 40 41C39.996 39.1445 39.7056 38.2519 38.5 37H37L36.5 36L35 34.5H36.5L40 37C40.5874 37.2231 40.9176 37.0585 41.5 36.5C41.9829 35.7068 42.3428 35.2723 43 34.5C45.3153 34.7555 46.4753 34.6476 47.5 32.5L74 28.5V27.5L49 31.5Z" fill="black"/>
</svg>
