<svg id="castle" xmlns="http://www.w3.org/2000/svg" xmlns:xlink="http://www.w3.org/1999/xlink" viewBox="0 0 110.57 110.57"><defs><style>.cls-1{fill:none;}.cls-2{clip-path:url(#clip-path);}.cls-3{fill:#fff;}.cls-3,.cls-5{fill-rule:evenodd;}.cls-4{opacity:0.2;}.cls-5{fill:#635eb0;}</style><clipPath id="clip-path" transform="translate(-232.33 -68.25)"><rect class="cls-1" width="1000" height="400" transform="translate(1000 400) rotate(180)"/></clipPath></defs><g class="cls-2"><path class="cls-3" d="M232.33,123.54a55.29,55.29,0,1,0,110.57,0,56.56,56.56,0,0,0-.32-6,55.29,55.29,0,0,0-110.25,6Z" transform="translate(-232.33 -68.25)"/><g class="cls-4"><path class="cls-5" d="M301.58,160.91a13,13,0,0,1-2.35,4,7.34,7.34,0,0,1-4,2.07,5.82,5.82,0,0,1-2.41.6,13.66,13.66,0,0,0-2.71,0c-1.75.4-2.69,2-4.65,2.06s-3.07-.51-4.69-1-3.3-1.13-4.71-1.66-2.92-1-4.52-1.51-2.59-1.69-4.74-1.09c-.13.79.07,2.06-.91,2.46-.68.27-1.8-.44-2.52-.72-1.87-.72-3.57-1.11-5.35-1.86a8.32,8.32,0,0,1-2.36-1c-.84-.62-1.75-1.09-2.62-1.67-1.62-1.08-3.2-2.25-4.81-3.35-3.1-2.1-5.09-5-7-8a24.69,24.69,0,0,1-2.17-5.2c-.77-2.26-.51-2.9,1-4.74,2.71,1.13,3.78-.55,3-3.45a20,20,0,0,1-.37-8.55c.1-.48.46-.81.54-1.48a11.49,11.49,0,0,1,.13-2,11.67,11.67,0,0,0,.52-3.35,15.87,15.87,0,0,1,.15-4,8.38,8.38,0,0,0,.53-2,10.55,10.55,0,0,1,.14-2.52c.64-2.24,2.69-2.87,4.53-3.5,1.26-.44,1.9-.87,2.7,0s.64,2.16.65,3.35c0,2.24-1.43,4.21-2.68,6-.55.81-1.53,1.59-1.39,2.7.08.61.84.7.79,1.32s-.86,1-1.26,1.49c-3.19,4.17,2.83,7.84,5.7,10.06,1.63,1.26,4.09,1.91,4.72,4,.67,2.24-.88,4.11-1.69,6s-1.59,5.52-.35,7.4a5.75,5.75,0,0,0,2.36,1.66,16.22,16.22,0,0,1,2.66,2,8.92,8.92,0,0,0,5.88,1.51,6.34,6.34,0,0,0,3.34-1.36,12,12,0,0,1,2.83-1.85,10.75,10.75,0,0,1,1.88-.14c.94-.11,1.13-.5,1.95-.72,1.43-.37,2.44.64,3.56,1.21.94.48,2.07,1.16,3.21.87s2.4-1,3.46-1.23c2.56-.53,6.7-.71,8.74,1,1,.87,1.4,2.1,2.32,3S301.3,158.86,301.58,160.91Z" transform="translate(-232.33 -68.25)"/><path class="cls-5" d="M250.68,102.65c2.46,0,4.71-1.8,6.72-3.18a12.7,12.7,0,0,0,4.16-4.69c.24-.53.32-1,.51-1.51,0-.11.64-1.71.64-1.75a4.86,4.86,0,0,0-1.48-2.76c-2-2.06-5.05-.58-7.05.66a32.86,32.86,0,0,0-5.32,4,12.82,12.82,0,0,0-2.38,2.33c-.72,1.22-.51,2.71-.49,4.2,0,2.26-2.93,4.87.66,5.37,1.41.2,5.72-1,6-2.69Z" transform="translate(-232.33 -68.25)"/><path class="cls-5" d="M294.88,174.3c.61.68,1.33.21,2,0a5.91,5.91,0,0,1,2-.32,16.19,16.19,0,0,0,4.19-.34c1.32-.33,2.58-.52,3.85-.83.5-.13,1-.41,1.49-.52.31-.06.67,0,1,0,.15,0,.16-.21.27-.24s.5,0,.76-.06A30.82,30.82,0,0,0,314,171a5.85,5.85,0,0,0,1.52-.48c.51-.32,1.22-.67,1.68-1a43.28,43.28,0,0,0,5.43-4.11c1.56-1.56,3.15-3,4.78-4.44.38-.33.68-.78,1.08-1.09a10.63,10.63,0,0,0,1.26-.92,20.75,20.75,0,0,0,2.18-2.77c1.32-1.9,3-3.47,4-5.55.51-1,1-2,1.55-3a13.76,13.76,0,0,0,1-2c.2-.5.61-1.1.75-1.58.21-.72.2-1.41.4-2.11.09-.3.29-.51.36-.81s-.11-.82,0-1.2.29-.49.37-.81-.11-.82,0-1.2.28-.49.36-.81-.14-.94,0-1.37.29-.47.36-.81a5.83,5.83,0,0,0,0-1.18c0-.86.3-1.53.34-2.35a11.18,11.18,0,0,0,0-2.52c-.08-.34-.29-.49-.37-.81s.11-.88,0-1.33c-.9-.23-.62,1.69-.61,2.15,0,.87-.36,1.34-.34,2.18,0,1-.41,1.18-1,1.93a6.05,6.05,0,0,0-1,1.4c-.09.29-.08.74-.15,1a3.14,3.14,0,0,0-.17,1c0,.81.06,1.23-.58,1.75a4.84,4.84,0,0,1-1.74.94c-.77.18-1.43.16-2.21.31-.35.06-.48.29-.81.36s-.87-.16-1.29,0a2.86,2.86,0,0,0-1,1.35,2.4,2.4,0,0,0,.25,1.93c.12.23.21.46.34.67s.47.49.6.74c.63,1.16-.28,3-.53,4-.09.39-.67,1.54-.35,1.89s2.21.05,2.57-.16c.21.42-.19,1.24-.31,1.69a8.18,8.18,0,0,1-.72,1.79,7.35,7.35,0,0,1-2.73,2.46c-.68.36-1.09.55-1.22-.36,0-.42.07-.65-.14-1s-.43-.31-.54-.64.12-.83,0-1.2-.26-.45-.32-.69c-.18-.79.13-1.68,0-2.48a3.34,3.34,0,0,0-2.86-2.68,24.7,24.7,0,0,1-4.17-1.34,6.56,6.56,0,0,0-4.7-.41,20.8,20.8,0,0,0-3.48,1.79,11.76,11.76,0,0,1-1.56.62c-.61.24-1.24.47-1.86.65a14.25,14.25,0,0,0-3.4,1.11,10.14,10.14,0,0,0-2.94,2.26c-.65.89-1.27,2.72-.8,3.83.36.85,1.63,1.58,2.23,2.29,1,1.21.76,2,0,3.26a7.49,7.49,0,0,0-.89,1.54,8.57,8.57,0,0,0,0,2.32,2.92,2.92,0,0,0,.58,1.6c.33.49,1.1.81,1.36,1.31s0,.68-.17,1c-.05.1-.22.13-.27.23s-.05.46-.15.69c-.33.77-1,.65-1.68.83a3.12,3.12,0,0,1-2-.16,3.76,3.76,0,0,0-1-.35c-.49-.08-.72.19-1.08.26-.83.18-1.3-.39-2.12-.43a2,2,0,0,0-1.58.76c-.42.43-1,1.13-.94,1.77S294.42,173.7,294.88,174.3Z" transform="translate(-232.33 -68.25)"/><path class="cls-5" d="M301.24,149.19a3.84,3.84,0,0,0-.58-.28,8.67,8.67,0,0,1-1.76,1.62c-1,.61-1.46.22-1.69-.82-.11-.54.18-.87.28-1.26s0-.92.47-1.2c.66-.39,2.56-.19,2.28.94Z" transform="translate(-232.33 -68.25)"/><path class="cls-5" d="M333.39,106a.57.57,0,0,0,.62.31,6.09,6.09,0,0,0,0-2.13c-.06-.31-.27-.46-.32-.85s0-.62-.06-.94-.43-1.07-.52-1.49a6.89,6.89,0,0,0-.42-1.59c-.24-.54-.38-1.25-.62-1.86a9.28,9.28,0,0,0-.8-1.49c-.61-1-1.12-2-1.75-3a20,20,0,0,0-4.05-5,22,22,0,0,0-1.82-1.27c-.21-.15-.37-.38-.57-.51s-.51-.19-.69-.32c-.52-.38-2-1.9-2.71-1.54.47,1.25,1.29,2.49,1.89,3.71.68,1.41,2,1.35,3,2.35,1.61,1.56-1.08,2.21-2,2.82s-.93,1.46-.92,2.45a7.81,7.81,0,0,1-.34,2.51A11.29,11.29,0,0,0,321,99.3c0,.23,0,.46,0,.69a.5.5,0,0,1-.28.39,3.59,3.59,0,0,0,.51,2.34,5.41,5.41,0,0,0,1.17,2.19c.66.61,1.38.41,2.26.42a4.83,4.83,0,0,0,1.34-.26c.34-.09.82-.29,1.08-.34s.79-.06,1.19-.15.45-.33,1-.18,1.12.81,1.73.95c.84.19,1.8-.21,2.64,0C333.68,105.48,333.7,105.57,333.39,106Z" transform="translate(-232.33 -68.25)"/><path class="cls-5" d="M270.75,148.75c1,0,2.24,1.1,2.82,1.93.79,1.14-.68,2.31-1.5,2.88a4.52,4.52,0,0,1-.95.57,4.1,4.1,0,0,1-.86.4c-.59,0-.82-1.41-1-1.87-.7-1.48.42-2.54,1.53-3.41Z" transform="translate(-232.33 -68.25)"/><path class="cls-5" d="M266,151l.21.16c.32-.71-.19-1.47-.25-2.14a2.09,2.09,0,0,0-1.48,1.36c0,.81,1.21.86,1.77.87Z" transform="translate(-232.33 -68.25)"/><path class="cls-5" d="M257.25,118.5c.28-1.22,2,.14,2.44.56a4.22,4.22,0,0,1,.82.93,3.85,3.85,0,0,1,.24,1.64c0,.61.25,1.11.25,1.75a6.51,6.51,0,0,1-.24,1.88,4.75,4.75,0,0,1-2,2.49,16.63,16.63,0,0,1-1.51.81c-.64.35-.66.51-1.33.16a8.29,8.29,0,0,1-2.22-1.41,12.2,12.2,0,0,1-1.94-2.31c-.66-1.13,0-2,.63-3a20,20,0,0,1,2.68-3.19,5.58,5.58,0,0,1,1-1C256.69,117.47,257.37,118,257.25,118.5Z" transform="translate(-232.33 -68.25)"/><path class="cls-5" d="M257.5,114l.2,0c0-.32.72-1.36.26-1.67s-.89.47-1.08.71c-.34.41-.64,1.14-.2,1.58a.63.63,0,0,0,1.07-.57Z" transform="translate(-232.33 -68.25)"/><path class="cls-5" d="M268.5,168.75a2.4,2.4,0,0,1,1.88-.48c.63.14,1.13.37,1.74.47a12.52,12.52,0,0,1,3.89,1.5c1.56,1,4.29,3.67,1.65,5a8.41,8.41,0,0,1-3.66.47c-.63,0-1-.26-1.63-.25a7.56,7.56,0,0,1-1.87-.37,20.91,20.91,0,0,1-3.25-1.06,8.2,8.2,0,0,1-2.44-1.82,2,2,0,0,1-.12-3.06c.55-.57,1-.44,1.81-.44Z" transform="translate(-232.33 -68.25)"/><path class="cls-5" d="M261.75,168.25a.41.41,0,0,0,.47.23c.27-.57-1.13-1.47-1.53-1.67-.67-.33-1.95-1-2.2.06-.16.71.63,1.67,1.25,2A1.66,1.66,0,0,0,262,168Z" transform="translate(-232.33 -68.25)"/><path class="cls-5" d="M241,121l.21,0c.29,1-.16,2-.22,3s0,2,0,3v3a5.22,5.22,0,0,1-.06,1.19c0,.17-.16.31-.2.55a8.51,8.51,0,0,0,0,1,6.89,6.89,0,0,1-.06,1.44c0,.05-.17.5-.19.56-.1.29,0,.31-.18.57a1.68,1.68,0,0,1-2.08.75c-.62-.32-1.09-.8-1.73-1.07a3.21,3.21,0,0,1-1.76-1.75A13.9,13.9,0,0,1,234,131c-.07-.22-.22-.26-.27-.48s0-.47-.05-.7-.17-.31-.2-.55,0-.35,0-.52a.34.34,0,0,0-.2-.3,5.87,5.87,0,0,1-.05-1.19c0-.53-.23-1-.25-1.5s-.27-.94-.26-1.5,0-1,0-1.5c0-1,0-2,0-3a5,5,0,0,1,.25-1.24c.1-.5.13-1,.24-1.52.07-.34.38-.73.46-1a3,3,0,0,1,.49-1.21,3.39,3.39,0,0,1,1.75-1.55,2.84,2.84,0,0,1,2.76.37,2.65,2.65,0,0,1,.81.93c.06.2,0,.49.05.7a3.22,3.22,0,0,1,.19.81,15.45,15.45,0,0,0,0,3.26c.1.46.41,1,.57,1.49S240.5,121.85,241,121Z" transform="translate(-232.33 -68.25)"/><path class="cls-5" d="M242.25,108.25c.66-.21,1,1.28,1,1.75s.13.87-.24,1.14a2.1,2.1,0,0,1-1.27.12c-.8-.23-.73-1.37-.74-2s.6-1.67,1.5-1.5Z" transform="translate(-232.33 -68.25)"/><path class="cls-5" d="M328,107.25l.05-.2c.25,0,.39-.23.6-.28a3.43,3.43,0,0,1,.85,0,8.25,8.25,0,0,0,1.49-.26,6.61,6.61,0,0,1,.89,0,2.53,2.53,0,0,1,.68.19,3.25,3.25,0,0,1,1.45.43,7.13,7.13,0,0,1,1.74,2.23,6.37,6.37,0,0,1,1,3.15,2.15,2.15,0,0,1-.28,1.35,5.94,5.94,0,0,0-.66,1.21,1.87,1.87,0,0,1-2.06,1.44,6.42,6.42,0,0,1-3-1.12,12.67,12.67,0,0,1-1.15-.85,3.59,3.59,0,0,1-1-.77,8.47,8.47,0,0,1-1-3,4.25,4.25,0,0,1-.11-1.85c0-.11.15-.12.17-.21s0-.39.05-.57S328.09,107.57,328,107.25Z" transform="translate(-232.33 -68.25)"/><path class="cls-5" d="M325.25,109.25c.64,0-.23-1.79-.94-1.7s-1.14,1.08-1.29,1.6c-.61,2.24,2.77,2.41,2.73.35Z" transform="translate(-232.33 -68.25)"/><path class="cls-5" d="M317,113.25c.05.53.58.85.69,1.31a1.48,1.48,0,0,1-.37,1.26c-.23.31-.66.78-1.08.7s-.66-.66-1-.9c-.66-.5-1.83-1-1-2a2.12,2.12,0,0,1,1.38-.63,1.88,1.88,0,0,1,1.62.51Z" transform="translate(-232.33 -68.25)"/><path class="cls-5" d="M334.25,135.5c.92.22.84-1.19.71-1.71a5.59,5.59,0,0,0-1.2-.31,3.6,3.6,0,0,0-1.45.58,1.7,1.7,0,0,0-.7,2.19c.27.54,1.5,1.34,2.09.95a3.26,3.26,0,0,0,.8-2.2Z" transform="translate(-232.33 -68.25)"/><path class="cls-5" d="M263.75,81.75c.24-.46.4-.65,0-1a1.21,1.21,0,0,0-1.19-.19,4.33,4.33,0,0,0-1.62,1.37,3.07,3.07,0,0,0-.64,1.13,1.54,1.54,0,0,0,.38,1,15.19,15.19,0,0,0,1.51,1.49c.72.74,1.16.31,1.75-.37s.83-1.17,1.25-1.75a5,5,0,0,0,.51-1,1.47,1.47,0,0,0-.32-1A4.83,4.83,0,0,0,263.5,80Z" transform="translate(-232.33 -68.25)"/><path class="cls-5" d="M257.75,83.75l.21,0a.86.86,0,0,1-.7,1.22c-.57.13-1.4-.11-1.52-.63s.38-1,.75-1.26c.59-.43,1.13-.52,1.26.38Z" transform="translate(-232.33 -68.25)"/><path class="cls-5" d="M261.5,147.75c-.08.25.23.94.3,1.2a11.39,11.39,0,0,0,.45,1.18,5.89,5.89,0,0,1,.38,1.25c.08.45.3.82.38,1.24.18.94-.92,1.6-1.77,1.39a6.51,6.51,0,0,1-2.05-1.2c-.41-.3-.52-.24-.75-.75a10.69,10.69,0,0,1-.43-1.32,3.51,3.51,0,0,1-.26-1.24,6.25,6.25,0,0,1,.06-1.5c.57-2.36,3.15-.84,3.69.75Z" transform="translate(-232.33 -68.25)"/><path class="cls-5" d="M254,164c.25-.89-1.42-1.5-2-1.5s-.81.08-1.06.69a1.28,1.28,0,0,0,.06,1.44,2.81,2.81,0,0,0,2.86.85c1-.41.59-1.79-.36-2Z" transform="translate(-232.33 -68.25)"/><path class="cls-5" d="M264.75,146a1.29,1.29,0,0,0,.76-.74c.07-.22,0-.47.05-.7a3.18,3.18,0,0,0,.2-.55c0-.25-.07-.52,0-.76s.23-.48.27-.75c.09-.48-.11-1,0-1.5s.51-1,.21-1.45-.79-.36-1.21-.31a11.91,11.91,0,0,0-1.24.32,5.18,5.18,0,0,0-1.6.69,3.37,3.37,0,0,0-1.66,1.87,7.51,7.51,0,0,0,.14,2.88,3,3,0,0,0,1.11,1.88,3.81,3.81,0,0,0,2.76-.13Z" transform="translate(-232.33 -68.25)"/><path class="cls-5" d="M259,145.5v-.17c.23,1.22-1.21,1.08-1.51.18s1.3-1.34,1.51-.26Z" transform="translate(-232.33 -68.25)"/></g></g></svg>