<svg width="24" height="31" viewBox="0 0 24 31" fill="none" xmlns="http://www.w3.org/2000/svg">
<path d="M3.11914 14.5621V25.5078L10.4394 31" fill="white"/>
<path d="M11.0294 20.006L7.90039 23.7384L11.0294 31.0001" fill="white"/>
<path d="M15.7506 14.5621L11.7139 19.4161V30.1201" fill="white"/>
<path d="M14.5721 20.7116L12.0322 30.9998L16.2815 25.5076" fill="white"/>
<path d="M19.8839 21.1277L12.7471 30.7681L19.8839 26.3298" fill="white"/>
<path d="M22.078 16.6991L20.417 20.4218V25.856" fill="white"/>
<path d="M23.0236 19.1173L22.4248 22.782L23.5547 21.2833" fill="white"/>
<path d="M21.2475 12.5992L20.417 19.5418L22.078 15.4033" fill="white"/>
<path d="M18.7639 10.5496L17.6533 15.2682L19.2564 16.6993" fill="white"/>
<path d="M17.0488 16.0734V23.1991L19.8975 18.8921" fill="white"/>
<path d="M16.2809 15.1447L14.9385 20.0084L16.503 24.4853" fill="white"/>
<path d="M13.1236 9.7099L11.25 18.7024L15.7214 13.4519" fill="white"/>
<path d="M1.51622 16.9019L0 21.6496L1.51622 23.187" fill="white"/>
<path d="M3.3125 13.8174L5.93933 19.3483V10.8972" fill="white"/>
<path d="M8.78728 11.5602L6.99707 20.982L9.84573 15.3845" fill="white"/>
<path d="M10.1052 17.4185L7.3125 22.8023L10.2403 19.2891" fill="white"/>
<path d="M8.9502 5.49207L11.7122 14.0398L12.7456 9.10841" fill="white"/>
<path d="M12.0309 0L8.9502 4.97006L11.0265 6.92328" fill="white"/>
<path d="M13.1914 7.64911L17.6531 12.5998L18.5803 10.1245" fill="white"/>
</svg>
