<svg  viewBox="0 0 1008 144" fill="none" xmlns="http://www.w3.org/2000/svg">
<path d="M107.4 142V145H110.4V142H107.4ZM107.4 114.6H110.4V111.6H107.4V114.6ZM31.4 114.6H28.4V117.6H31.4V114.6ZM31.4 85.2V82.2H28.4V85.2H31.4ZM97.4 85.2V88.2H100.4V85.2H97.4ZM97.4 57.8H100.4V54.8H97.4V57.8ZM31.4 57.8H28.4V60.8H31.4V57.8ZM31.4 29.4V26.4H28.4V29.4H31.4ZM106.4 29.4V32.4H109.4V29.4H106.4ZM106.4 1.99999H109.4V-1.00001H106.4V1.99999ZM0.800001 1.99999V-1.00001H-2.2V1.99999H0.800001ZM0.800001 142H-2.2V145H0.800001V142ZM110.4 142V114.6H104.4V142H110.4ZM107.4 111.6H31.4V117.6H107.4V111.6ZM34.4 114.6V85.2H28.4V114.6H34.4ZM31.4 88.2H97.4V82.2H31.4V88.2ZM100.4 85.2V57.8H94.4V85.2H100.4ZM97.4 54.8H31.4V60.8H97.4V54.8ZM34.4 57.8V29.4H28.4V57.8H34.4ZM31.4 32.4H106.4V26.4H31.4V32.4ZM109.4 29.4V1.99999H103.4V29.4H109.4ZM106.4 -1.00001H0.800001V4.99999H106.4V-1.00001ZM-2.2 1.99999V142H3.8V1.99999H-2.2ZM0.800001 145H107.4V139H0.800001V145ZM303.184 1.99999L305.968 3.11757L307.621 -1.00001H303.184V1.99999ZM269.984 1.99999V-1.00001H267.898L267.172 0.956004L269.984 1.99999ZM233.384 100.6L230.572 101.644L233.384 109.221L236.197 101.644L233.384 100.6ZM196.784 1.99999L199.597 0.956004L198.871 -1.00001H196.784V1.99999ZM162.784 1.99999V-1.00001H158.347L160 3.11757L162.784 1.99999ZM219.384 143L216.6 144.118L217.356 146H219.384V143ZM246.584 143V146H248.613L249.368 144.118L246.584 143ZM303.184 -1.00001H269.984V4.99999H303.184V-1.00001ZM267.172 0.956004L230.572 99.556L236.197 101.644L272.797 3.04398L267.172 0.956004ZM236.197 99.556L199.597 0.956004L193.972 3.04398L230.572 101.644L236.197 99.556ZM196.784 -1.00001H162.784V4.99999H196.784V-1.00001ZM160 3.11757L216.6 144.118L222.168 141.882L165.568 0.882415L160 3.11757ZM219.384 146H246.584V140H219.384V146ZM249.368 144.118L305.968 3.11757L300.4 0.882415L243.8 141.882L249.368 144.118ZM471.384 142V145H474.384V142H471.384ZM471.384 114.6H474.384V111.6H471.384V114.6ZM395.384 114.6H392.384V117.6H395.384V114.6ZM395.384 85.2V82.2H392.384V85.2H395.384ZM461.384 85.2V88.2H464.384V85.2H461.384ZM461.384 57.8H464.384V54.8H461.384V57.8ZM395.384 57.8H392.384V60.8H395.384V57.8ZM395.384 29.4V26.4H392.384V29.4H395.384ZM470.384 29.4V32.4H473.384V29.4H470.384ZM470.384 1.99999H473.384V-1.00001H470.384V1.99999ZM364.784 1.99999V-1.00001H361.784V1.99999H364.784ZM364.784 142H361.784V145H364.784V142ZM474.384 142V114.6H468.384V142H474.384ZM471.384 111.6H395.384V117.6H471.384V111.6ZM398.384 114.6V85.2H392.384V114.6H398.384ZM395.384 88.2H461.384V82.2H395.384V88.2ZM464.384 85.2V57.8H458.384V85.2H464.384ZM461.384 54.8H395.384V60.8H461.384V54.8ZM398.384 57.8V29.4H392.384V57.8H398.384ZM395.384 32.4H470.384V26.4H395.384V32.4ZM473.384 29.4V1.99999H467.384V29.4H473.384ZM470.384 -1.00001H364.784V4.99999H470.384V-1.00001ZM361.784 1.99999V142H367.784V1.99999H361.784ZM364.784 145H471.384V139H364.784V145ZM663.169 142V145H666.169V142H663.169ZM663.169 1.99999H666.169V-1.00001H663.169V1.99999ZM632.769 1.99999V-1.00001H629.769V1.99999H632.769ZM632.769 88.2L630.381 90.0168L635.769 97.0958V88.2H632.769ZM567.169 1.99999L569.556 0.183196L568.656 -1.00001H567.169V1.99999ZM538.769 1.99999V-1.00001H535.769V1.99999H538.769ZM538.769 142H535.769V145H538.769V142ZM569.169 142V145H572.169V142H569.169ZM569.169 53L571.555 51.182L566.169 44.1114V53H569.169ZM636.969 142L634.582 143.818L635.483 145H636.969V142ZM666.169 142V1.99999H660.169V142H666.169ZM663.169 -1.00001H632.769V4.99999H663.169V-1.00001ZM629.769 1.99999V88.2H635.769V1.99999H629.769ZM635.156 86.3832L569.556 0.183196L564.781 3.81678L630.381 90.0168L635.156 86.3832ZM567.169 -1.00001H538.769V4.99999H567.169V-1.00001ZM535.769 1.99999V142H541.769V1.99999H535.769ZM538.769 145H569.169V139H538.769V145ZM572.169 142V53H566.169V142H572.169ZM566.782 54.818L634.582 143.818L639.355 140.182L571.555 51.182L566.782 54.818ZM636.969 145H663.169V139H636.969V145ZM842.777 30.4V33.4H845.777V30.4H842.777ZM842.777 1.99999H845.777V-1.00001H842.777V1.99999ZM726.777 1.99999V-1.00001H723.777V1.99999H726.777ZM726.777 30.4H723.777V33.4H726.777V30.4ZM769.377 30.4H772.377V27.4H769.377V30.4ZM769.377 142H766.377V145H769.377V142ZM800.177 142V145H803.177V142H800.177ZM800.177 30.4V27.4H797.177V30.4H800.177ZM845.777 30.4V1.99999H839.777V30.4H845.777ZM842.777 -1.00001H726.777V4.99999H842.777V-1.00001ZM723.777 1.99999V30.4H729.777V1.99999H723.777ZM726.777 33.4H769.377V27.4H726.777V33.4ZM766.377 30.4V142H772.377V30.4H766.377ZM769.377 145H800.177V139H769.377V145ZM803.177 142V30.4H797.177V142H803.177ZM800.177 33.4H842.777V27.4H800.177V33.4ZM1004.66 84.4L1001.9 85.5716L1001.92 85.6067L1001.93 85.6414L1004.66 84.4ZM996.064 73L994.066 75.2378L994.108 75.2753L994.151 75.3112L996.064 73ZM982.064 64.6L980.858 67.3469L980.898 67.3645L980.938 67.3808L982.064 64.6ZM963.264 58.2L962.491 61.0987L962.498 61.1005L963.264 58.2ZM948.264 54L947.375 56.8652L947.388 56.8694L947.402 56.8735L948.264 54ZM939.064 50.2L940.585 47.6142L940.585 47.6142L939.064 50.2ZM934.264 45.8L931.54 47.0572L931.6 47.1876L931.673 47.3116L934.264 45.8ZM937.464 30.8L939.298 33.1738L939.306 33.1682L939.313 33.1625L937.464 30.8ZM969.064 31L967.897 33.7637L967.923 33.7748L967.95 33.7854L969.064 31ZM987.464 41L985.776 43.4798L988.241 45.1581L989.934 42.7032L987.464 41ZM1003.46 17.8L1005.93 19.5032L1007.52 17.1977L1005.33 15.4531L1003.46 17.8ZM979.664 4.59999L978.649 7.42322L978.656 7.42571L978.663 7.42816L979.664 4.59999ZM931.664 2.99999L930.715 0.153939L930.715 0.15394L931.664 2.99999ZM916.064 11.6L914.123 9.31247L914.106 9.32724L914.089 9.34227L916.064 11.6ZM906.064 25L908.775 26.2843L908.782 26.2707L908.788 26.2572L906.064 25ZM905.664 60L902.936 61.2473L902.95 61.2792L902.966 61.3107L905.664 60ZM915.064 71.8L913.19 74.1426L913.214 74.162L913.239 74.1808L915.064 71.8ZM929.664 79.6L928.618 82.4117L928.618 82.4117L929.664 79.6ZM948.864 85.4L949.592 82.4895L949.579 82.4864L948.864 85.4ZM963.064 89.6L962.022 92.4132L962.039 92.4193L962.055 92.4252L963.064 89.6ZM971.664 93.6L970 96.0961L970.037 96.1206L970.074 96.144L971.664 93.6ZM975.864 98L973.095 99.1538L973.155 99.2987L973.23 99.4365L975.864 98ZM971.664 113.4L973.306 115.911L973.317 115.904L973.328 115.896L971.664 113.4ZM934.664 112.2L933.41 114.925L933.421 114.93L933.431 114.935L934.664 112.2ZM915.064 99.8L916.956 97.4717L914.658 95.6049L912.761 97.8774L915.064 99.8ZM896.864 121.6L894.561 119.677L892.714 121.89L894.851 123.825L896.864 121.6ZM924.864 138.6L923.839 141.419L923.855 141.425L923.871 141.431L924.864 138.6ZM977.064 141.2L977.92 144.075L977.948 144.067L977.976 144.058L977.064 141.2ZM993.264 132.8L995.13 135.149L995.151 135.133L995.171 135.116L993.264 132.8ZM1003.86 119.2L1006.57 120.487L1006.58 120.474L1006.59 120.461L1003.86 119.2ZM1010.66 100.6V100.2H1004.66V100.6H1010.66ZM1010.66 100.2C1010.66 93.7497 1009.61 88.0384 1007.4 83.1586L1001.93 85.6414C1003.71 89.5616 1004.66 94.3836 1004.66 100.2H1010.66ZM1007.43 83.2283C1005.36 78.3637 1002.19 74.1793 997.977 70.6888L994.151 75.3112C997.667 78.2206 1000.23 81.6363 1001.9 85.5716L1007.43 83.2283ZM998.062 70.7622C994.024 67.157 989.045 64.1893 983.19 61.8192L980.938 67.3808C986.283 69.544 990.637 72.1764 994.066 75.2378L998.062 70.7622ZM983.27 61.8531C977.634 59.3785 971.215 57.1974 964.03 55.2995L962.498 61.1005C969.446 62.9359 975.561 65.0215 980.858 67.3469L983.27 61.8531ZM964.037 55.3013C958.054 53.7058 953.086 52.3145 949.126 51.1265L947.402 56.8735C951.442 58.0855 956.474 59.4942 962.491 61.0987L964.037 55.3013ZM949.153 51.1348C945.403 49.9708 942.576 48.7854 940.585 47.6142L937.543 52.7858C940.085 54.2812 943.392 55.6292 947.375 56.8652L949.153 51.1348ZM940.585 47.6142C938.586 46.4383 937.444 45.297 936.855 44.2884L931.673 47.3116C932.951 49.503 935.009 51.2951 937.543 52.7858L940.585 47.6142ZM936.988 44.5428C936.401 43.2706 936.064 41.7129 936.064 39.8H930.064C930.064 42.4204 930.527 44.8628 931.54 47.0572L936.988 44.5428ZM936.064 39.8V39.4H930.064V39.8H936.064ZM936.064 39.4C936.064 36.9345 937.041 34.918 939.298 33.1738L935.63 28.4261C932.02 31.2153 930.064 34.9321 930.064 39.4H936.064ZM939.313 33.1625C941.634 31.3461 945.392 30.2 951.064 30.2V24.2C944.736 24.2 939.428 25.4539 935.615 28.4375L939.313 33.1625ZM951.064 30.2C956.63 30.2 962.235 31.3729 967.897 33.7637L970.231 28.2362C963.894 25.5604 957.498 24.2 951.064 24.2V30.2ZM967.95 33.7854C973.717 36.0922 979.659 39.3151 985.776 43.4798L989.152 38.5202C982.736 34.1516 976.411 30.7078 970.178 28.2146L967.95 33.7854ZM989.934 42.7032L1005.93 19.5032L1000.99 16.0968L984.994 39.2968L989.934 42.7032ZM1005.33 15.4531C997.873 9.51254 989.646 4.94976 980.665 1.77183L978.663 7.42816C987.016 10.3836 994.656 14.6208 1001.6 20.1468L1005.33 15.4531ZM980.679 1.77677C971.78 -1.42124 962.031 -3.00001 951.464 -3.00001V2.99999C961.43 2.99999 970.482 4.4879 978.649 7.42322L980.679 1.77677ZM951.464 -3.00001C943.986 -3.00001 937.06 -1.96105 930.715 0.153939L932.613 5.84604C938.268 3.96103 944.543 2.99999 951.464 2.99999V-3.00001ZM930.715 0.15394C924.387 2.2634 918.842 5.30852 914.123 9.31247L918.005 13.8875C922.086 10.4248 926.941 7.73659 932.613 5.84604L930.715 0.15394ZM914.089 9.34227C909.502 13.3558 905.915 18.1645 903.34 23.7428L908.788 26.2572C911.013 21.4355 914.093 17.3109 918.04 13.8577L914.089 9.34227ZM903.353 23.7157C900.737 29.2371 899.464 35.4188 899.464 42.2H905.464C905.464 36.1812 906.591 30.8962 908.775 26.2843L903.353 23.7157ZM899.464 42.2V42.6H905.464V42.2H899.464ZM899.464 42.6C899.464 49.8207 900.572 56.0772 902.936 61.2473L908.392 58.7527C906.489 54.5895 905.464 49.2459 905.464 42.6H899.464ZM902.966 61.3107C905.424 66.373 908.837 70.6605 913.19 74.1426L916.938 69.4574C913.291 66.5395 910.437 62.9603 908.363 58.6893L902.966 61.3107ZM913.239 74.1808C917.52 77.463 922.662 80.1957 928.618 82.4117L930.71 76.7883C925.199 74.7377 920.608 72.2704 916.889 69.4192L913.239 74.1808ZM928.618 82.4117C934.478 84.5921 940.991 86.5577 948.149 88.3136L949.579 82.4864C942.604 80.7756 936.317 78.8746 930.71 76.7883L928.618 82.4117ZM948.136 88.3104C953.95 89.7637 958.566 91.1332 962.022 92.4132L964.106 86.7867C960.362 85.4001 955.512 83.9696 949.592 82.4896L948.136 88.3104ZM962.055 92.4252C965.686 93.7219 968.293 94.958 970 96.0961L973.328 91.1038C971.035 89.5753 967.909 88.1447 964.073 86.7748L962.055 92.4252ZM970.074 96.144C971.908 97.2899 972.753 98.3346 973.095 99.1538L978.633 96.8462C977.641 94.4654 975.687 92.5767 973.254 91.056L970.074 96.144ZM973.23 99.4365C973.747 100.383 974.064 101.603 974.064 103.2H980.064C980.064 100.797 979.581 98.5499 978.498 96.5634L973.23 99.4365ZM974.064 103.2V103.6H980.064V103.2H974.064ZM974.064 103.6C974.064 106.675 972.812 109.029 970 110.904L973.328 115.896C977.716 112.971 980.064 108.791 980.064 103.6H974.064ZM970.022 110.889C967.242 112.707 962.975 113.8 956.864 113.8V119.8C963.553 119.8 969.152 118.627 973.306 115.911L970.022 110.889ZM956.864 113.8C949.258 113.8 942.282 112.345 935.897 109.465L933.431 114.935C940.646 118.189 948.47 119.8 956.864 119.8V113.8ZM935.918 109.475C929.506 106.525 923.184 102.532 916.956 97.4717L913.172 102.128C919.744 107.468 926.489 111.742 933.41 114.925L935.918 109.475ZM912.761 97.8774L894.561 119.677L899.167 123.523L917.367 101.723L912.761 97.8774ZM894.851 123.825C903.528 131.675 913.194 137.549 923.839 141.419L925.889 135.781C916.001 132.185 907 126.725 898.877 119.375L894.851 123.825ZM923.871 141.431C934.451 145.141 945.253 147 956.264 147V141C945.942 141 935.811 139.259 925.857 135.769L923.871 141.431ZM956.264 147C964.108 147 971.335 146.037 977.92 144.075L976.208 138.325C970.26 140.097 963.62 141 956.264 141V147ZM977.976 144.058C984.542 141.962 990.276 139.004 995.13 135.149L991.398 130.451C987.186 133.796 982.119 136.438 976.152 138.342L977.976 144.058ZM995.171 135.116C1000.05 131.101 1003.85 126.216 1006.57 120.487L1001.15 117.913C998.809 122.851 995.549 127.032 991.357 130.484L995.171 135.116ZM1006.59 120.461C1009.33 114.544 1010.66 107.904 1010.66 100.6H1004.66C1004.66 107.163 1003.47 112.923 1001.14 117.939L1006.59 120.461Z" fill="#69C8C3"/>
</svg>
