<svg width="124" height="31" viewBox="0 0 124 31" fill="none" xmlns="http://www.w3.org/2000/svg">
<g clip-path="url(#clip0_1049_173)">
<path d="M3.11719 14.5625V25.5082L10.4374 31.0004" fill="white"/>
<path d="M11.0274 20.0078L7.89844 23.7402L11.0274 31.0019" fill="white"/>
<path d="M15.7515 14.5625L11.7148 19.4165V30.1205" fill="white"/>
<path d="M14.5711 20.7109L12.0312 30.9991L16.2806 25.5069" fill="white"/>
<path d="M19.8829 21.125L12.7461 30.7654L19.8829 26.3271" fill="white"/>
<path d="M22.079 16.6953L20.418 20.418V25.8522" fill="white"/>
<path d="M23.0246 19.1172L22.4258 22.7819L23.5557 21.2832" fill="white"/>
<path d="M21.2485 12.6016L20.418 19.5442L22.079 15.4057" fill="white"/>
<path d="M18.7629 10.5469L17.6523 15.2655L19.2554 16.6966" fill="white"/>
<path d="M17.0469 16.0703V23.196L19.8956 18.889" fill="white"/>
<path d="M16.2799 15.1484L14.9375 20.0121L16.502 24.489" fill="white"/>
<path d="M13.1236 9.71094L11.25 18.7034L15.7214 13.4529" fill="white"/>
<path d="M1.51622 16.8984L0 21.6461L1.51622 23.1835" fill="white"/>
<path d="M3.3125 13.8186L5.93933 19.3495V10.8984" fill="white"/>
<path d="M8.7863 11.5625L6.99609 20.9843L9.84475 15.3868" fill="white"/>
<path d="M10.1052 17.4219L7.3125 22.8057L10.2403 19.2925" fill="white"/>
<path d="M8.94922 5.49219L11.7112 14.0399L12.7446 9.10853" fill="white"/>
<path d="M12.0299 0L8.94922 4.97006L11.0255 6.92328" fill="white"/>
<path d="M13.1914 7.64844L17.6531 12.5991L18.5803 10.1238" fill="white"/>
</g>
<path d="M38.9551 23H35.4395L39.9131 6.30078L42.7256 8.9375L38.9551 23ZM47.7441 23H39.834L43.6045 8.9375H55.0303L54.0898 12.4531H46.1797L44.29 19.4844H48.6846L49.1592 17.7266H47.4014L49.2207 14.2109H53.6152L51.2598 23L47.041 25.6367L47.7441 23ZM60.0488 23L62.8789 12.4531H58.4844L55.6543 23H52.1387L55.9092 8.9375H67.335L63.5645 23H60.0488ZM67.959 23H64.4434L68.917 6.30078L71.7295 8.9375L67.959 23ZM77.3809 12.4531L74.5508 23L70.332 25.6367L73.8652 12.4531H71.2285L73.0479 8.9375H80.958L79.1387 12.4531H77.3809ZM81.3975 8.9375H89.3076L88.3672 12.4531H83.9727L83.498 14.2109H87.8926L86.0732 17.7266H82.5576L82.083 19.4844H86.4775L85.5371 23H77.627L81.3975 8.9375ZM104.53 17.7266L103.115 23L98.8965 25.6367L100.944 17.7266H94.8623L98.9756 8.9375H102.491L100.197 14.2109H101.955L103.37 8.9375H106.886L105.471 14.2109H107.229L106.288 17.7266H104.53ZM110.208 19.4844L109.268 23H105.752L106.692 19.4844H110.208ZM110.146 23L113.917 8.9375H123.585L119.814 23H110.146ZM116.492 12.4531L114.603 19.4844H117.239L119.129 12.4531H116.492Z" fill="white"/>
<defs>
<clipPath id="clip0_1049_173">
<rect width="24" height="31" fill="white"/>
</clipPath>
</defs>
</svg>
